<svg xmlns="http://www.w3.org/2000/svg" width="32.41" height="26.313" viewBox="0 0 32.41 26.313">
  <defs>
    <style>
      .cls-1 {
        fill: #23663f;
        fill-rule: evenodd;
      }
    </style>
  </defs>
  <path id="boutique" class="cls-1" d="M1656.92,63.425h-0.54V49.342a4.405,4.405,0,0,0,2.03-3.708,0.482,0.482,0,0,0-.06-0.235l-3.77-6.592a1.486,1.486,0,0,0-1.29-.751h-22.16a1.5,1.5,0,0,0-1.3.751l-3.76,6.592a0.4,0.4,0,0,0-.07.235,4.405,4.405,0,0,0,2.03,3.708V63.425h-0.54a0.475,0.475,0,0,0,0,.95h29.43A0.475,0.475,0,1,0,1656.92,63.425ZM1654,49.091a3.46,3.46,0,0,1-3.42-2.983h6.85A3.463,3.463,0,0,1,1654,49.091Zm-23.34-9.814a0.528,0.528,0,0,1,.47-0.272h22.16a0.552,0.552,0,0,1,.47.272l3.36,5.882H1627.3Zm18.9,6.831a3.452,3.452,0,0,1-6.84,0h6.84Zm-7.86,0a3.458,3.458,0,0,1-6.85,0h6.85Zm-14.71,0h6.84A3.452,3.452,0,0,1,1626.99,46.109Zm25.91,17.317h-5.14V61.838h5.14v1.588Zm0-2.537h-5.14V52.2h5.14v8.691Zm2.53,2.537h-1.59v-11.7a0.472,0.472,0,0,0-.47-0.475h-6.09a0.472,0.472,0,0,0-.47.475v11.7h-17.83V49.8a5.774,5.774,0,0,1,9.3.239,4.4,4.4,0,0,1,7.86,0,4.4,4.4,0,0,1,7.86,0,4.41,4.41,0,0,0,1.43-.239V63.425Zm-10.69-12.178h-13.7a0.472,0.472,0,0,0-.47.475v9.641a0.472,0.472,0,0,0,.47.475h13.7a0.474,0.474,0,0,0,.48-0.475V51.723A0.474,0.474,0,0,0,1644.74,51.248Zm-0.47,9.641h-12.75V52.2h12.75v8.691Z" transform="translate(-1626 -38.063)"/>
</svg>
