<svg xmlns="http://www.w3.org/2000/svg" width="31.65" height="28.438" viewBox="0 0 31.65 28.438">
  <defs>
    <style>
      .cls-1 {
        fill: #23663f;
        fill-rule: evenodd;
      }
    </style>
  </defs>
  <path id="bulles" class="cls-1" d="M1786.7,43.183a0.618,0.618,0,1,0,.62.618A0.612,0.612,0,0,0,1786.7,43.183Zm-10.26,11.13a0.618,0.618,0,1,0-.62-0.618A0.621,0.621,0,0,0,1776.44,54.313ZM1791.65,37c-5.57,0-10.14,3.838-10.49,8.673-5.3.266-10.29,4.089-10.29,9.26a8.633,8.633,0,0,0,2.42,5.913,3.779,3.779,0,0,1-1,3.543,0.621,0.621,0,0,0-.13.674,0.611,0.611,0,0,0,.57.382,6.809,6.809,0,0,0,4.72-1.91,14.179,14.179,0,0,0,4.31.673c5.56,0,10.13-3.837,10.49-8.671a13.866,13.866,0,0,0,3.7-.66,6.851,6.851,0,0,0,4.73,1.91,0.621,0.621,0,0,0,.44-1.056,3.753,3.753,0,0,1-1-3.543,8.623,8.623,0,0,0,2.41-5.913C1802.53,40.9,1797.16,37,1791.65,37Zm-9.89,25.971a12.5,12.5,0,0,1-4.24-.73,0.609,0.609,0,0,0-.68.157,5.6,5.6,0,0,1-2.78,1.647,5.037,5.037,0,0,0,.38-3.68,0.65,0.65,0,0,0-.15-0.261,7.4,7.4,0,0,1-2.18-5.171c0-4.358,4.42-8.038,9.65-8.038,4.93,0,9.27,3.433,9.27,8.038C1791.03,59.364,1786.87,62.971,1781.76,62.971Zm17.36-11.525a0.651,0.651,0,0,0-.15.261,4.99,4.99,0,0,0,.38,3.681,5.6,5.6,0,0,1-2.78-1.647,0.609,0.609,0,0,0-.68-0.157,12.254,12.254,0,0,1-3.65.714,8.826,8.826,0,0,0-3.34-6.168h8.07a0.618,0.618,0,1,0,0-1.236H1787a11.519,11.519,0,0,0-4.6-1.219c0.36-4.153,4.37-7.438,9.25-7.438,5.23,0,9.65,3.681,9.65,8.039A7.449,7.449,0,0,1,1799.12,51.446Zm-12.42,1.631h-7.79a0.618,0.618,0,1,0,0,1.237h7.79A0.618,0.618,0,1,0,1786.7,53.077Zm0,3.71h-10.26a0.618,0.618,0,1,0,0,1.237h10.26A0.618,0.618,0,1,0,1786.7,56.787Zm10.27-13.6h-7.79a0.618,0.618,0,1,0,0,1.237h7.79A0.618,0.618,0,1,0,1796.97,43.183Z" transform="translate(-1770.88 -37)"/>
</svg>
