<svg xmlns="http://www.w3.org/2000/svg" width="45.031" height="18.375" viewBox="0 0 45.031 18.375">
  <defs>
    <style>
      .cls-1 {
        fill: #23663f;
        fill-rule: evenodd;
      }
    </style>
  </defs>
  <path id="chaussure" class="cls-1" d="M411.03,51.623a0.706,0.706,0,1,1-1,0A0.706,0.706,0,0,1,411.03,51.623Zm2.118,1.765a0.706,0.706,0,1,1-1,0A0.707,0.707,0,0,1,413.148,53.389Zm2.118,1.765a0.706,0.706,0,1,1-1,0A0.707,0.707,0,0,1,415.266,55.154ZM391.044,50.38a28.846,28.846,0,0,1,1.517-3.686,1.235,1.235,0,0,1,2.254.1,2.109,2.109,0,0,0,1.967,1.335h7.858a2.1,2.1,0,0,0,1.272-.424A8.454,8.454,0,0,1,411,46.011h0.25l2.427,1.972,0.354-.353a0.706,0.706,0,0,1,1,1l-0.25.25,1.04,0.845,0.329-.329a0.707,0.707,0,1,1,1,1l-0.226.225,1.041,0.845,0.3-.3a0.706,0.706,0,0,1,1,1l-0.2.2,3.535,2.872,6.606,1.326a0.7,0.7,0,0,1,.228.083c2.8,0.839,5.573,3.4,5.572,6.314a1.415,1.415,0,0,1-1.412,1.412h-24.3l-0.207-.206a8.876,8.876,0,0,0-6.318-2.618h-0.949v1.412a1.414,1.414,0,0,1-1.412,1.412h-7.767a1.413,1.413,0,0,1-1.412-1.412v-1.9a8.463,8.463,0,0,1-1.271-4.754A19.112,19.112,0,0,1,391.044,50.38Zm1.593,12.577H400.4V61.545h-7.767v1.412Zm-0.328-2.824h23.628a0.706,0.706,0,1,1,0,1.412h-7.954a10.352,10.352,0,0,1,1.886,1.412h23.72c-0.007-2.305-2.412-4.332-4.624-4.98a0.7,0.7,0,0,1-.133-0.051L421.99,56.56h0l-3.934-3.2-0.792.792a0.706,0.706,0,1,1-1.023-.973l0.025-.026,0.689-.688-1.041-.845-0.768.767a0.706,0.706,0,0,1-1.024-.972l0.026-.026,0.664-.664-1.041-.846-0.743.743A0.706,0.706,0,0,1,412,49.653l0.026-.026,0.639-.64-1.919-1.56a6.99,6.99,0,0,0-3.987,1.406c-0.081.06-.163,0.117-0.249,0.17l1.451,1.45a0.706,0.706,0,1,1-1,1l-1.933-1.934a3.492,3.492,0,0,1-.39.022h-7.858a3.522,3.522,0,0,1-3.122-1.882,27.987,27.987,0,0,0-1.278,3.167,18.175,18.175,0,0,0-1.018,5.476A7.21,7.21,0,0,0,392.309,60.133Z" transform="translate(-389.969 -46)"/>
</svg>
