<?xml version="1.0" encoding="utf-8"?>
<!-- Generator: Adobe Illustrator 24.2.0, SVG Export Plug-In . SVG Version: 6.00 Build 0)  -->
<svg version="1.1" id="Layer_1" xmlns="http://www.w3.org/2000/svg" xmlns:xlink="http://www.w3.org/1999/xlink" x="0px" y="0px"
	 viewBox="0 0 841.89 595.28" style="enable-background:new 0 0 841.89 595.28;" xml:space="preserve">
<style type="text/css">
	.st0{fill:#23663F;}
	.st1{fill:#114426;}
	.st2{fill:#FFFFFF;}
	.st3{fill:#C8C6CC;}
	.st4{fill:#8B8992;}
</style>
<ellipse transform="matrix(0.7071 -0.7071 0.7071 0.7071 -87.1712 384.8291)" class="st0" cx="420.94" cy="297.64" rx="297.64" ry="297.64"/>
<path class="st1" d="M718.35,309.04L556.49,158.58c-30.01,8.1-87.78,369.28-83.93,327.29c1.61-17.55,61.82-31.27,22.79-82.75
	c-80.42-106.07-4.92-168.58,18.31-147.21l-24.29,30.37l-16.81,199.59l3.26,104.35l0,0C610.37,565.14,713.06,449.56,718.35,309.04z"
	/>
<path class="st2" d="M407.48,181.67c-1.04,2.02-2.56,3.74-4.49,4.91c-4.51,2.84-10,2.87-15.52,3.15c-1.11,0.06-2.26,0.18-3.42,0.34
	c0.05-0.61,0.05-1.23-0.22-1.82c-0.36-1.06-1.12-1.88-1.91-2.65c-1.64-1.41-3.63-2.26-5.6-2.91c-4.05-1.16-8.29-1.43-12.52-0.7
	l-1.6,0.31l-1.23,0.18c-0.74,0.18-1.67,0.14-2.5,0.21c-1.78,0-3.61-0.15-5.46-0.39c-3.67-0.42-7.43-1.1-11.12-2
	c-7.42-1.63-14.81-3.79-22.04-6.26c-1.86-0.57-3.5-1.3-5.48-1.98c-1.98-0.68-4.06-1.29-6.4-1.24c-0.63,0.1-1.22,0.18-1.84,0.34
	c-0.59,0.3-1.2,0.47-1.69,0.95c-1.1,0.81-1.54,2.08-1.74,3.15c-0.15,1.02-0.1,2,0.05,2.93c-1.6-0.79-3.25-1.45-4.83-1.98
	c-2.53-0.92-5.07-1.73-7.33-2.94c-2.3-1.12-4.41-2.6-5.99-4.59c-2.26-2.73-3.17-6.41-2.82-10.05c3.78-15.4,11.75-21.03,24.16-47.12
	c20.02-44.72,61.02-38.18,61.02-38.18C415.96,89.66,412.08,146.77,407.48,181.67"/>
<path class="st3" d="M374.37,183.66c2.23-0.33,4.58,0.84,8.7,3.02c0.58,0.3,0.31,3.8,1.44,4.45c1.32,0.76,4.03-1.34,4.56-1.11
	c10.35,4.47,12.68-15.13,13.15-21.26c0.36-4.82,0.57-9.65,0.56-14.48c-0.01-10.17-0.89-20.39-3.33-30.19
	c-4.85-19.58-16.59-35.69-35.03-42.08c0,0-34.51-5.54-51.75,34.81c-3.65,8.55-8.98,16.43-13.65,24.51
	c-2.39,4.14-4.64,8.39-6.41,12.87c-1.53,3.88-3.87,9.38-3.15,13.65c0.29,1.77,0.74,5.79,2.18,6.62c2.1,1.21,8.81,6.13,10.82,5.4
	c2.12-0.77,1.03-8.43,3.18-8.31c3.74,0.21,7.45,1.45,10.93,2.72c6.43,2.33,12.78,5.14,19.49,6.5c6.5,1.32,12.98,2.82,19.57,3.66
	C361.44,185.18,368.35,184.56,374.37,183.66"/>
<path class="st2" d="M383.56,449.43c-9.03,21.7-22.98,46.81-45.48,56.74c-20.52,9.02-44.79,4.7-61.47-9.72
	c-14.72-12.72-21.4-32.15-26.18-50.22c-4.69-17.76-6.79-36.17-6.98-54.54c-0.36-35.62,5.48-72.93,18.24-106.41
	c0.14-0.47,0.33-0.89,0.49-1.35c0.52-1.32,1.02-2.64,1.48-4c9.65-27.63,12.62-64.87,15.48-81.28c2.78-15.65-0.48-22.72,1.73-35.66
	c0.22-1.27,0.49-2.62,0.83-4.03c0.02-0.13,0.07-0.25,0.08-0.35c-0.34,3.64,0.57,7.32,2.82,10.05c1.58,1.99,3.7,3.47,6,4.59
	c2.25,1.21,4.8,2.01,7.32,2.94c1.58,0.53,3.23,1.19,4.83,1.98c-0.16-0.93-0.2-1.91-0.05-2.93c0.19-1.08,0.64-2.34,1.73-3.15
	c0.49-0.48,1.11-0.64,1.7-0.95c0.61-0.16,1.2-0.24,1.84-0.35c2.34-0.04,4.42,0.57,6.4,1.24c1.97,0.69,3.62,1.42,5.48,1.98
	c7.22,2.47,14.63,4.64,22.04,6.26c3.7,0.91,7.45,1.59,11.12,2.01c1.85,0.25,3.67,0.39,5.46,0.39c0.82-0.07,1.76-0.03,2.5-0.22
	l1.22-0.17l1.61-0.31c4.22-0.73,8.47-0.46,12.52,0.7c1.98,0.65,3.95,1.49,5.6,2.91c0.79,0.77,1.55,1.59,1.91,2.65
	c0.26,0.59,0.27,1.21,0.21,1.82c1.16-0.16,2.31-0.28,3.43-0.34c5.52-0.28,11.01-0.31,15.52-3.15c1.92-1.17,3.45-2.89,4.49-4.91
	c-0.15,1.05-0.27,2.07-0.42,3.05c-0.59,4.35-1.16,8.29-1.6,11.7c-4.03,30.41-14.16,85.69-11.57,109.96
	c0.51,4.88,1.08,9.96,1.68,15.11c0.1,1.05,0.21,2.07,0.31,3.12c2.18,19.41,4.23,39.21,3.82,51.8
	C398.87,401.25,393.09,426.57,383.56,449.43"/>
<path class="st4" d="M307.92,338.78c-0.72,2.65-1.75,5.68-4.09,8.08c-2.39,2.34-5.52,3.37-8.4,3.69c-2.91,0.41-5.7,0.16-8.45-0.12
	c-10.41-1.51-20.11-5.06-29.48-9.21l-1.37-0.59l1.37,0.4l6.37,1.86c2.54,0.77,5.11,1.61,7.73,2.09c5.19,1.13,10.46,2.07,15.69,2.33
	c5.06,0.26,10.7-0.17,13.47-3.32c1.34-1.59,2.13-3.84,2.66-6.32c0.2-1.11,0.32-2.39,0.45-3.7c0.13-1.27,0.2-2.63,0.29-3.95
	l0.42-8.08l0.39-7.67l0.69-13.56l0.16-2.76l0.4-6.66l0.4-6.59l0.46-7.69l0.62-10.51l0.04-0.68c0.22-3.02,0.47-6.03,0.7-9.05
	c0.2-2.66,0.43-5.35,0.67-8.04c0.22-2.56,0.45-5.15,0.7-7.72c0.22-2.43,0.46-4.89,0.73-7.32c0.23-2.2,0.49-4.37,0.74-6.54
	c0.4-3.12,0.76-6.18,1.05-9.26c0.5-5.31,0.76-10.53,0.36-15.71c-0.37-5.12-1.51-10.15-4.15-14.21c-2.57-4.14-6.94-6.77-11.79-8.89
	c-4.77-2.17-10.32-4.55-13.49-9.4c-1.36-2.02-2.18-4.34-2.38-6.68c-0.03-0.43-0.07-0.86-0.07-1.28c0.12-2.77,0.84-5.45,2.14-7.83
	c-0.62,1.53-1.02,3.13-1.16,4.73c-0.34,3.64,0.57,7.32,2.82,10.05c1.59,1.99,3.7,3.47,6,4.59c2.25,1.21,4.8,2.01,7.31,2.94
	c1.58,0.53,3.23,1.19,4.83,1.98c0.33,0.15,0.64,0.32,0.97,0.5c3.13,1.63,6.08,3.85,8.25,6.9c3.54,4.77,4.99,10.54,5.66,16.05
	c0.93,7.02,0.54,14-0.04,20.83c-0.26,3.11-0.59,6.17-0.82,9.19c-0.09,0.86-0.16,1.73-0.22,2.6c-0.17,1.98-0.34,4-0.47,6
	c-0.23,2.59-0.45,5.19-0.64,7.79c-0.38,4.71-0.72,9.43-1.04,14.16c-0.1,1.34-0.18,2.7-0.28,4.04c-0.13,1.8-0.27,3.6-0.38,5.4
	c-0.15,1.63-0.26,3.27-0.37,4.9c-0.15,2.58-0.35,5.17-0.53,7.74c-0.25,3.89-0.51,7.81-0.8,11.7c-0.22,3.01-0.44,6.03-0.67,9.08
	c-0.21,2.95-0.46,5.94-0.7,8.88c-0.19,2.61-0.41,5.2-0.67,7.79c-0.27,2.91-0.54,5.82-0.84,8.73c-0.18,1.34-0.3,2.68-0.51,4.04
	C308.49,335.84,308.28,337.24,307.92,338.78"/>
<path class="st4" d="M388.41,360.27c-0.1,0.02-0.23,0-0.32,0.02c-5.42,0.2-10.84,0.43-16.26,0.44c-5.52,0.05-11.09,0.2-16.68-0.18
	c-2.83-0.19-5.64-0.51-8.43-1.13c-2.81-0.51-5.67-1.43-8.4-2.9c-2.67-1.44-5.31-4.17-6.19-7.44c-0.88-3.31-0.81-6.12-0.41-9.24
	c1.14-6.61,2.43-13.11,3.82-19.58c0.21-0.95,0.4-1.86,0.61-2.8c0.35-1.67,0.73-3.34,1.07-4.97c0.27-1.17,0.54-2.32,0.81-3.49
	c1.39-6.09,2.82-12.17,4.24-18.22c0.57-2.57,1.15-5.15,1.76-7.72c0.38-1.7,0.76-3.39,1.14-5.08c0.22-1.04,0.47-2.08,0.68-3.11
	c0.44-1.85,0.88-3.7,1.32-5.58c1.24-5.27,2.44-10.54,3.58-15.82c0.57-2.54,1.14-5.08,1.68-7.63c0.26-1.07,0.48-2.14,0.71-3.21
	l0.87-4.12l1.9-8.9l0.66-3.18c1.14-5.51,2.67-10.99,4.83-16.31c2.24-5.25,5.08-10.54,9.63-14.57c2.36-1.89,4.97-3.54,7.89-4.37
	c1.57-0.51,3.14-0.86,4.74-1.08c0.13-0.01,0.26-0.03,0.39-0.04c1.16-0.16,2.31-0.28,3.43-0.34c5.53-0.28,11.01-0.31,15.52-3.15
	c1.93-1.17,3.45-2.89,4.49-4.91c1.47-2.67,2.08-5.89,1.79-9.01c0.54,2.71,0.47,5.59-0.36,8.32c-0.42,1.33-1.02,2.57-1.85,3.75
	c-0.86,1.23-1.9,2.32-3.11,3.24c-4.72,3.61-10.86,4.13-16.17,4.9c-2.68,0.35-5.29,0.87-7.66,1.78c-2.4,0.84-4.44,2.36-6.28,4.03
	c-3.55,3.56-5.97,8.3-7.81,13.25c-0.83,2.54-1.66,5.07-2.25,7.71c-0.65,2.4-1.14,4.82-1.57,7.29c-0.05,0.18-0.09,0.41-0.11,0.59
	l-1.54,8.38l-1.47,7.96c-0.3,1.61-0.64,3.18-0.97,4.79c-0.5,2.52-1.05,5.07-1.58,7.61c-0.74,3.46-1.49,6.92-2.26,10.37
	c-0.64,2.99-1.31,5.94-1.98,8.92c-0.06,0.25-0.11,0.54-0.18,0.79l-2.37,9.83l-1.84,7.55l-3.13,13.07l-0.44,1.82
	c-0.56,2.25-1.13,4.53-1.68,6.79c-0.05,0.09-0.06,0.15-0.07,0.21c-0.63,2.47-1.22,4.91-1.84,7.35c-1.46,5.91-2.86,11.84-4.08,17.66
	c-0.48,2.34-0.54,5.18-0.07,7.23c0.5,2.12,1.91,3.76,3.92,5.09c4.15,2.63,9.67,3.71,14.97,4.49c5.38,0.84,10.86,1.16,16.4,1.59
	l16.2,1.24L388.41,360.27z"/>
<path class="st4" d="M384.11,189.64c-0.05,0.51-0.15,0.98-0.28,1.4c0.01-0.47-0.02-0.93-0.12-1.35c-0.34-1.6-1.45-2.73-2.67-3.39
	c-1.6-0.83-3.39-1.24-5.22-1.33c-3.66-0.33-7.4,0.27-10.82,1.42l-1.25,0.52l-1.64,0.56c-1.16,0.42-2.21,0.45-3.31,0.69
	c-2.14,0.2-4.25,0.25-6.32,0.17c-4.09-0.24-8.07-0.94-11.96-1.82c-7.79-1.93-15.37-4.64-22.52-8.51c-1.75-0.93-3.59-2.05-5.2-3.03
	c-1.57-1.01-3.21-1.81-4.75-2.11c-1.55-0.26-2.76,0.26-3.53,2.14c-0.4,0.97-0.64,2.12-0.75,3.32c-0.11,0.95-0.13,1.97-0.09,2.98
	c-0.38-1.13-1.6-2.29-1.77-3.54c-0.14-1.05,0.73-2.15,0.91-3.31c0.21-1.22,0.69-2.67,1.8-3.61c0.5-0.55,1.12-0.75,1.72-1.11
	c0.62-0.21,1.21-0.3,1.85-0.43c2.35-0.1,4.42,0.55,6.39,1.28c1.97,0.74,3.61,1.53,5.46,2.14c7.19,2.66,14.57,4.97,21.98,6.66
	c3.68,0.96,7.44,1.66,11.11,2.06c1.85,0.24,3.68,0.36,5.47,0.33c0.82-0.1,1.76-0.07,2.5-0.29l1.23-0.22l1.62-0.39
	c4.26-0.92,8.5-0.69,12.54,0.54c1.97,0.7,3.95,1.62,5.56,3.19c0.78,0.86,1.52,1.78,1.86,2.97
	C384.18,188.24,384.18,188.94,384.11,189.64"/>
<path class="st4" d="M265.91,264.88c-3.35,19.42-4.93,39.05-6.85,58.67c-2.01,19.55-3.18,39.18-2.74,58.72
	c0.64,19.49,2.5,39.12,7.82,57.69c2.71,9.23,6.31,18.19,11.45,26.14c2.53,3.99,5.53,7.67,8.75,10.98c3.38,3.17,7.08,5.98,11.13,8.21
	c4.09,2.14,8.43,3.75,12.91,4.68c4.51,0.82,9.11,0.9,13.59,0.21c9.01-1.43,17.09-6.49,23-13.63c12.37-14.67,20.21-32.81,26.4-51.25
	c12.11-37.27,19.13-76.14,26.2-114.89c-2.12,19.6-4.97,39.11-8.12,58.6c-3.32,19.48-7.62,38.79-13.3,57.81
	c-5.74,18.95-13.66,37.79-26.5,53.62c-6.49,8.12-16.11,14.23-26.65,15.94c-5.25,0.83-10.6,0.76-15.8-0.16
	c-5.18-1.04-10.15-2.85-14.79-5.29c-4.59-2.55-8.75-5.74-12.53-9.33c-3.65-3.76-6.85-7.79-9.58-12.12
	c-5.49-8.65-9.33-18.17-12.01-27.87c-5.18-19.48-6.9-39.42-6.97-59.27c-0.01-19.87,1.86-39.61,4.63-59.17l4.32-29.25
	C261.8,284.19,263.47,274.44,265.91,264.88"/>
<path class="st4" d="M303.83,212.35c-0.77,5.15-4.42,8.88-8.16,8.33c-3.74-0.56-6.15-5.19-5.38-10.34c0.77-5.16,4.42-8.89,8.16-8.33
	C302.19,202.56,304.6,207.2,303.83,212.35"/>
<path class="st4" d="M298.56,247.84c-0.76,5.15-4.42,8.88-8.16,8.33c-3.74-0.55-6.14-5.19-5.38-10.34c0.77-5.16,4.42-8.89,8.16-8.33
	C296.91,238.05,299.32,242.68,298.56,247.84"/>
<path class="st4" d="M295.15,283.59c-0.76,5.15-4.41,8.88-8.15,8.33c-3.74-0.56-6.15-5.19-5.38-10.35c0.76-5.16,4.42-8.89,8.15-8.33
	C293.51,273.8,295.92,278.44,295.15,283.59"/>
<path class="st4" d="M292.1,317.02c-0.77,5.15-4.41,8.88-8.15,8.33c-3.75-0.56-6.15-5.19-5.39-10.35c0.77-5.16,4.42-8.89,8.16-8.33
	C290.45,307.23,292.86,311.86,292.1,317.02"/>
<path class="st4" d="M385.32,225.89c-0.76,5.15-4.42,8.88-8.16,8.33c-3.74-0.56-6.14-5.19-5.38-10.34c0.77-5.16,4.42-8.89,8.16-8.33
	C383.68,216.1,386.08,220.73,385.32,225.89"/>
<path class="st4" d="M380.05,261.37c-0.77,5.16-4.42,8.89-8.16,8.33c-3.74-0.56-6.15-5.19-5.38-10.34c0.77-5.16,4.42-8.89,8.16-8.34
	C378.41,251.58,380.82,256.21,380.05,261.37"/>
<path class="st4" d="M376.65,297.13c-0.77,5.15-4.41,8.88-8.15,8.33c-3.74-0.56-6.15-5.19-5.39-10.34c0.77-5.16,4.42-8.89,8.16-8.34
	C375,287.35,377.41,291.98,376.65,297.13"/>
<path class="st4" d="M373.59,330.56c-0.76,5.15-4.41,8.88-8.15,8.33c-3.74-0.55-6.15-5.19-5.38-10.34c0.76-5.16,4.42-8.89,8.15-8.33
	C371.94,320.77,374.36,325.4,373.59,330.56"/>
<path class="st3" d="M374.58,263.22c-0.21-0.03-0.41-0.08-0.62-0.15c-48.94-15.94-79.54-52.22-80.81-53.76
	c-1.33-1.61-1.12-3.98,0.49-5.31c1.6-1.33,3.98-1.12,5.31,0.48c0.3,0.36,30.55,36.17,77.35,51.41c1.98,0.65,3.07,2.78,2.42,4.76
	C378.14,262.43,376.37,263.49,374.58,263.22"/>
<path class="st3" d="M292.45,249.13c-1.93-0.29-3.34-2.01-3.21-3.98c0.14-2.08,1.93-3.66,4.01-3.52
	c0.42,0.03,42.96,2.41,84.87-23.17c1.78-1.09,4.11-0.52,5.19,1.25c1.09,1.78,0.52,4.11-1.25,5.2
	c-44.03,26.87-87.47,24.37-89.29,24.25C292.66,249.15,292.55,249.14,292.45,249.13"/>
<path class="st3" d="M368.98,302.19c-0.21-0.03-0.42-0.08-0.62-0.15c-49.02-15.97-77.85-53.18-79.06-54.76
	c-1.26-1.66-0.94-4.02,0.71-5.3c1.66-1.26,4.03-0.94,5.29,0.71c0.28,0.37,28.69,36.95,75.4,52.17c1.98,0.65,3.07,2.78,2.42,4.76
	C372.54,301.41,370.77,302.46,368.98,302.19"/>
<path class="st3" d="M289.01,284.17c-2.05-0.3-3.46-2.19-3.19-4.24c0.28-2.06,2.18-3.51,4.25-3.25c0.42,0.06,42.54,5.36,84.31-20.14
	c1.78-1.09,4.1-0.53,5.18,1.25c1.09,1.78,0.52,4.11-1.25,5.19c-44.16,26.95-87.43,21.43-89.26,21.18
	C289.02,284.17,289.02,284.17,289.01,284.17"/>
<path class="st3" d="M366.27,333.29c-0.2-0.03-0.41-0.08-0.62-0.15c-48.9-15.94-78.3-48.97-79.52-50.37
	c-1.38-1.57-1.22-3.94,0.34-5.32c1.57-1.38,3.95-1.22,5.33,0.34c0.28,0.33,29.35,32.91,76.19,48.16c1.98,0.64,3.07,2.79,2.43,4.76
	C369.83,332.5,368.06,333.55,366.27,333.29"/>
<path class="st3" d="M286.58,320.9c-1.43-0.21-2.3-0.38-2.52-0.43c-2.05-0.42-3.35-2.42-2.93-4.46c0.42-2.04,2.48-3.35,4.46-2.93
	c0.38,0.09,40.9,8,82.53-17.42c1.78-1.08,4.1-0.52,5.19,1.26c1.09,1.77,0.52,4.1-1.25,5.19
	C333.38,325.72,296.47,322.37,286.58,320.9"/>
<path class="st2" d="M430.88,182.21c1.06,2.01,2.6,3.72,4.53,4.88c4.53,2.8,10.01,2.78,15.54,3.03c1.12,0.05,2.27,0.16,3.42,0.31
	c-0.06-0.61-0.06-1.23,0.2-1.82c0.35-1.07,1.11-1.9,1.89-2.67c1.63-1.43,3.61-2.29,5.59-2.95c4.03-1.19,8.28-1.49,12.51-0.79
	l1.61,0.31l1.23,0.16c0.74,0.18,1.67,0.13,2.5,0.2c1.78-0.02,3.61-0.17,5.46-0.43c3.67-0.44,7.42-1.16,11.1-2.09
	c7.41-1.67,14.79-3.9,22-6.42c1.85-0.58,3.49-1.33,5.46-2.03c1.97-0.69,4.05-1.31,6.39-1.29c0.63,0.1,1.23,0.17,1.84,0.33
	c0.6,0.3,1.21,0.46,1.7,0.94c1.11,0.8,1.56,2.06,1.75,3.13c0.17,1.02,0.12,2-0.02,2.93c1.59-0.8,3.24-1.48,4.82-2.02
	c2.52-0.94,5.05-1.77,7.29-2.99c2.29-1.13,4.39-2.63,5.97-4.63c2.24-2.75,3.12-6.44,2.75-10.08c-3.89-15.37-11.91-20.94-24.5-46.94
	c-20.34-44.57-61.3-37.73-61.3-37.73C421.73,90.25,426.02,147.34,430.88,182.21"/>
<path class="st3" d="M464,183.96c-2.23-0.32-4.58,0.88-8.67,3.07c-0.58,0.31-0.29,3.81-1.41,4.46c-1.31,0.77-4.03-1.31-4.57-1.07
	c-10.32,4.54-12.8-15.04-13.31-21.16c-0.41-4.82-0.64-9.65-0.67-14.48c-0.06-10.16,0.75-20.39,3.11-30.21
	c4.72-19.62,16.34-35.81,34.72-42.33c0,0,34.46-5.79,52,34.43c3.71,8.52,9.11,16.37,13.82,24.41c2.42,4.13,4.7,8.36,6.5,12.82
	c1.56,3.87,3.93,9.35,3.25,13.63c-0.28,1.77-0.7,5.8-2.13,6.63c-2.09,1.23-8.77,6.2-10.79,5.48c-2.12-0.76-1.09-8.43-3.24-8.29
	c-3.73,0.24-7.44,1.52-10.9,2.8c-6.42,2.38-12.74,5.24-19.44,6.65c-6.5,1.37-12.96,2.91-19.54,3.8
	C476.95,185.39,470.03,184.81,464,183.96"/>
<path class="st2" d="M456.74,449.79c9.19,21.63,23.32,46.64,45.89,56.4c20.58,8.87,44.83,4.38,61.4-10.16
	c14.63-12.84,21.17-32.31,25.82-50.41c4.56-17.8,6.53-36.23,6.59-54.59c0.1-35.62-6.01-72.89-19.02-106.27
	c-0.14-0.46-0.33-0.89-0.51-1.36c-0.52-1.31-1.03-2.63-1.49-3.98c-9.86-27.57-13.11-64.77-16.08-81.17
	c-2.9-15.63,0.32-22.72-1.99-35.64c-0.24-1.26-0.51-2.62-0.86-4.02c-0.02-0.13-0.07-0.25-0.08-0.35c0.37,3.64-0.51,7.33-2.75,10.08
	c-1.58,2-3.68,3.5-5.97,4.63c-2.24,1.23-4.78,2.05-7.29,2.99c-1.58,0.54-3.22,1.22-4.82,2.02c0.15-0.93,0.2-1.91,0.03-2.93
	c-0.19-1.07-0.66-2.33-1.75-3.13c-0.49-0.48-1.11-0.64-1.7-0.94c-0.61-0.16-1.2-0.23-1.84-0.33c-2.34-0.02-4.42,0.59-6.39,1.29
	c-1.97,0.7-3.61,1.44-5.47,2.03c-7.2,2.52-14.58,4.74-21.99,6.42c-3.69,0.93-7.44,1.65-11.11,2.09c-1.85,0.26-3.67,0.41-5.45,0.43
	c-0.82-0.06-1.75-0.02-2.5-0.2l-1.23-0.16l-1.61-0.31c-4.23-0.7-8.48-0.4-12.51,0.79c-1.98,0.67-3.95,1.52-5.59,2.95
	c-0.78,0.77-1.54,1.6-1.89,2.67c-0.26,0.59-0.26,1.21-0.2,1.82c-1.16-0.15-2.31-0.26-3.42-0.31c-5.53-0.25-11.01-0.23-15.54-3.03
	c-1.94-1.16-3.47-2.87-4.53-4.88c0.16,1.04,0.29,2.06,0.44,3.05c0.62,4.36,1.23,8.29,1.7,11.69c4.25,30.39,14.78,85.59,12.36,109.87
	c-0.47,4.88-1.01,9.97-1.57,15.12c-0.09,1.05-0.2,2.07-0.29,3.13c-2.04,19.41-3.94,39.24-3.44,51.83
	C441.09,401.72,447.04,427,456.74,449.79"/>
<path class="st4" d="M531.57,338.58c0.74,2.65,1.79,5.67,4.15,8.06c2.41,2.32,5.55,3.32,8.42,3.63c2.92,0.39,5.7,0.11,8.45-0.19
	c10.41-1.59,20.08-5.21,29.42-9.43c0.46-0.21,0.92-0.4,1.37-0.61l-1.37,0.41l-6.36,1.9c-2.55,0.78-5.11,1.64-7.72,2.15
	c-5.18,1.17-10.45,2.15-15.67,2.44c-5.05,0.3-10.7-0.08-13.49-3.22c-1.35-1.58-2.16-3.82-2.71-6.3c-0.21-1.11-0.33-2.39-0.47-3.69
	c-0.14-1.28-0.21-2.63-0.32-3.95l-0.48-8.08l-0.45-7.66l-0.78-13.55l-0.17-2.77l-0.46-6.66l-0.44-6.59l-0.51-7.68l-0.7-10.51
	l-0.04-0.68c-0.24-3.01-0.52-6.02-0.76-9.04c-0.22-2.66-0.47-5.35-0.73-8.04c-0.24-2.56-0.48-5.16-0.75-7.71
	c-0.25-2.43-0.5-4.89-0.78-7.31c-0.25-2.2-0.52-4.37-0.79-6.54c-0.42-3.12-0.8-6.18-1.12-9.25c-0.54-5.3-0.83-10.52-0.47-15.71
	c0.34-5.12,1.44-10.17,4.05-14.24c2.54-4.16,6.89-6.82,11.73-8.97c4.76-2.21,10.29-4.63,13.42-9.5c1.35-2.03,2.14-4.37,2.33-6.7
	c0.03-0.43,0.06-0.85,0.06-1.28c-0.14-2.77-0.88-5.45-2.19-7.81c0.63,1.53,1.04,3.12,1.19,4.72c0.37,3.64-0.52,7.32-2.75,10.07
	c-1.57,2-3.68,3.5-5.97,4.63c-2.24,1.23-4.78,2.05-7.29,2.99c-1.58,0.54-3.22,1.22-4.82,2.02c-0.33,0.15-0.63,0.33-0.96,0.51
	c-3.12,1.66-6.05,3.9-8.2,6.97c-3.51,4.8-4.91,10.57-5.54,16.1c-0.89,7.03-0.45,14,0.19,20.82c0.29,3.1,0.64,6.17,0.89,9.19
	c0.1,0.86,0.18,1.73,0.23,2.59c0.19,1.99,0.37,4.01,0.52,6c0.24,2.59,0.49,5.19,0.7,7.78c0.41,4.71,0.79,9.42,1.14,14.15
	c0.12,1.34,0.19,2.7,0.3,4.05c0.15,1.8,0.3,3.59,0.42,5.39c0.16,1.63,0.28,3.27,0.41,4.91c0.17,2.57,0.38,5.17,0.59,7.73
	c0.28,3.9,0.57,7.8,0.88,11.69c0.24,3.02,0.49,6.03,0.73,9.08c0.23,2.95,0.5,5.93,0.77,8.88c0.2,2.6,0.45,5.19,0.72,7.78
	c0.29,2.91,0.58,5.82,0.91,8.72c0.17,1.34,0.31,2.68,0.53,4.04C530.99,335.66,531.2,337.05,531.57,338.58"/>
<path class="st4" d="M451.25,360.67c0.1,0.02,0.22,0,0.32,0.01c5.42,0.17,10.84,0.36,16.26,0.33c5.53,0.01,11.09,0.12,16.68-0.3
	c2.83-0.21,5.63-0.55,8.42-1.18c2.8-0.53,5.65-1.46,8.37-2.96c2.66-1.46,5.29-4.21,6.14-7.49c0.85-3.32,0.77-6.13,0.35-9.25
	c-1.2-6.61-2.54-13.08-3.96-19.55c-0.22-0.94-0.42-1.85-0.63-2.79c-0.36-1.67-0.75-3.33-1.11-4.96c-0.27-1.15-0.56-2.32-0.84-3.47
	c-1.43-6.08-2.9-12.16-4.37-18.19c-0.59-2.57-1.19-5.14-1.81-7.7c-0.39-1.69-0.79-3.39-1.18-5.08c-0.23-1.04-0.49-2.06-0.71-3.1
	c-0.45-1.85-0.9-3.69-1.36-5.57c-1.28-5.26-2.52-10.52-3.7-15.8c-0.59-2.54-1.18-5.08-1.74-7.62c-0.27-1.06-0.5-2.12-0.73-3.19
	l-0.91-4.12l-1.97-8.88l-0.68-3.17c-1.18-5.51-2.75-10.98-4.94-16.28c-2.28-5.23-5.15-10.5-9.74-14.5c-2.37-1.87-5-3.51-7.91-4.32
	c-1.57-0.5-3.15-0.84-4.74-1.05c-0.13-0.01-0.27-0.02-0.39-0.04c-1.17-0.14-2.32-0.25-3.43-0.31c-5.53-0.24-11.01-0.23-15.54-3.03
	c-1.93-1.16-3.47-2.87-4.53-4.87c-1.49-2.66-2.12-5.88-1.86-9.01c-0.52,2.72-0.43,5.59,0.42,8.31c0.43,1.33,1.05,2.57,1.88,3.74
	c0.88,1.23,1.92,2.3,3.13,3.21c4.75,3.58,10.9,4.05,16.2,4.78c2.69,0.33,5.3,0.83,7.68,1.73c2.4,0.83,4.45,2.32,6.3,3.98
	c3.57,3.54,6.03,8.25,7.91,13.19c0.84,2.54,1.69,5.07,2.3,7.69c0.67,2.4,1.17,4.82,1.62,7.29c0.06,0.19,0.1,0.4,0.13,0.6l1.6,8.36
	l1.53,7.95c0.32,1.6,0.66,3.17,1.01,4.78c0.52,2.52,1.08,5.06,1.64,7.6c0.76,3.45,1.53,6.91,2.34,10.35
	c0.66,2.99,1.34,5.93,2.03,8.91c0.08,0.24,0.12,0.53,0.2,0.78l2.44,9.82l1.89,7.54l3.24,13.04l0.45,1.82
	c0.57,2.25,1.16,4.53,1.74,6.78c0.05,0.1,0.06,0.15,0.07,0.22c0.64,2.47,1.25,4.91,1.89,7.34c1.51,5.9,2.95,11.81,4.21,17.63
	c0.49,2.33,0.59,5.17,0.13,7.22c-0.48,2.13-1.88,3.77-3.88,5.13c-4.13,2.66-9.64,3.78-14.93,4.6c-5.38,0.88-10.85,1.24-16.39,1.72
	l-16.19,1.36L451.25,360.67z"/>
<path class="st4" d="M454.31,190c0.05,0.51,0.15,0.97,0.29,1.4c-0.01-0.48,0.01-0.93,0.11-1.35c0.33-1.61,1.42-2.73,2.65-3.41
	c1.59-0.84,3.38-1.27,5.21-1.37c3.65-0.35,7.41,0.21,10.83,1.34l1.25,0.51l1.64,0.56c1.17,0.41,2.21,0.43,3.32,0.66
	c2.14,0.19,4.26,0.23,6.32,0.12c4.08-0.26,8.06-1,11.94-1.9c7.79-1.99,15.34-4.75,22.46-8.67c1.73-0.94,3.57-2.08,5.17-3.06
	c1.56-1.02,3.2-1.83,4.73-2.15c1.55-0.28,2.76,0.24,3.54,2.11c0.41,0.97,0.66,2.12,0.78,3.31c0.11,0.94,0.14,1.97,0.11,2.98
	c0.37-1.13,1.59-2.31,1.75-3.55c0.12-1.06-0.76-2.15-0.94-3.3c-0.22-1.22-0.7-2.66-1.83-3.6c-0.51-0.55-1.13-0.75-1.73-1.1
	c-0.62-0.2-1.21-0.29-1.85-0.42c-2.35-0.08-4.43,0.58-6.39,1.33c-1.96,0.75-3.59,1.56-5.45,2.18c-7.17,2.71-14.54,5.08-21.93,6.82
	c-3.67,0.98-7.43,1.71-11.1,2.14c-1.84,0.25-3.67,0.39-5.46,0.37c-0.83-0.09-1.77-0.06-2.51-0.27l-1.23-0.22l-1.63-0.37
	c-4.26-0.89-8.51-0.63-12.54,0.63c-1.97,0.71-3.92,1.65-5.54,3.23c-0.77,0.86-1.5,1.79-1.83,2.99
	C454.23,188.61,454.23,189.31,454.31,190"/>
<path class="st4" d="M573.05,264.39c3.48,19.4,5.22,39.01,7.28,58.62c2.14,19.54,3.47,39.15,3.16,58.7
	c-0.5,19.49-2.22,39.13-7.39,57.74c-2.64,9.25-6.18,18.23-11.27,26.22c-2.5,4.01-5.47,7.72-8.68,11.04
	c-3.36,3.2-7.04,6.04-11.08,8.29c-4.07,2.17-8.39,3.82-12.87,4.79c-4.5,0.85-9.1,0.95-13.59,0.31c-9.02-1.37-17.14-6.38-23.1-13.46
	c-12.47-14.58-20.45-32.67-26.78-51.07c-12.37-37.18-19.68-75.99-27.02-114.7c2.26,19.59,5.25,39.08,8.55,58.54
	c3.46,19.45,7.91,38.74,13.72,57.71c5.88,18.91,13.94,37.69,26.9,53.43c6.55,8.07,16.21,14.11,26.76,15.74
	c5.25,0.8,10.62,0.69,15.81-0.27c5.16-1.08,10.12-2.92,14.74-5.39c4.57-2.57,8.71-5.8,12.46-9.41c3.62-3.79,6.79-7.84,9.49-12.2
	c5.43-8.69,9.2-18.24,11.81-27.95c5.04-19.51,6.62-39.47,6.54-59.32c-0.13-19.86-2.15-39.6-5.05-59.13l-4.54-29.22
	C577.3,283.66,575.56,273.93,573.05,264.39"/>
<path class="st4" d="M534.74,212.13c0.81,5.15,4.49,8.86,8.22,8.27c3.73-0.58,6.11-5.23,5.3-10.38c-0.8-5.15-4.48-8.85-8.22-8.27
	C536.32,202.33,533.94,206.98,534.74,212.13"/>
<path class="st4" d="M540.27,247.58c0.81,5.15,4.49,8.85,8.22,8.28c3.73-0.59,6.11-5.24,5.3-10.38c-0.8-5.15-4.48-8.86-8.22-8.27
	C541.85,237.77,539.47,242.42,540.27,247.58"/>
<path class="st4" d="M543.94,283.31c0.8,5.15,4.48,8.85,8.22,8.26c3.73-0.58,6.11-5.23,5.31-10.37c-0.8-5.15-4.49-8.86-8.22-8.27
	C545.51,273.51,543.13,278.16,543.94,283.31"/>
<path class="st4" d="M547.24,316.71c0.8,5.15,4.48,8.86,8.22,8.28c3.73-0.58,6.11-5.23,5.3-10.38c-0.81-5.15-4.48-8.86-8.22-8.27
	C548.81,306.91,546.43,311.56,547.24,316.71"/>
<path class="st4" d="M453.35,226.26c0.8,5.15,4.49,8.86,8.22,8.27c3.73-0.58,6.11-5.23,5.3-10.38c-0.8-5.16-4.48-8.86-8.22-8.27
	C454.92,216.47,452.55,221.12,453.35,226.26"/>
<path class="st4" d="M458.88,261.71c0.8,5.15,4.49,8.85,8.22,8.26c3.73-0.58,6.11-5.23,5.3-10.37c-0.8-5.15-4.48-8.86-8.22-8.27
	C460.45,251.91,458.08,256.56,458.88,261.71"/>
<path class="st4" d="M462.55,297.44c0.81,5.15,4.49,8.85,8.22,8.27c3.73-0.58,6.11-5.23,5.3-10.37c-0.8-5.15-4.47-8.86-8.21-8.27
	C464.12,287.64,461.75,292.29,462.55,297.44"/>
<path class="st4" d="M465.85,330.84c0.8,5.15,4.48,8.86,8.22,8.27c3.73-0.58,6.11-5.23,5.3-10.37c-0.8-5.15-4.48-8.86-8.22-8.28
	C467.42,321.04,465.05,325.69,465.85,330.84"/>
<path class="st3" d="M464.37,263.51c0.21-0.03,0.41-0.09,0.62-0.15c48.82-16.31,79.16-52.8,80.42-54.35
	c1.33-1.61,1.08-3.99-0.52-5.31c-1.61-1.32-3.99-1.09-5.31,0.52c-0.3,0.37-30.29,36.38-76.98,51.98c-1.98,0.65-3.04,2.8-2.39,4.78
	C460.8,262.75,462.58,263.8,464.37,263.51"/>
<path class="st3" d="M546.4,248.82c1.92-0.3,3.32-2.03,3.18-4c-0.15-2.08-1.95-3.64-4.04-3.49c-0.42,0.03-42.95,2.72-85.03-22.55
	c-1.79-1.08-4.11-0.49-5.18,1.29c-1.07,1.79-0.49,4.11,1.29,5.18c44.22,26.56,87.64,23.75,89.47,23.61
	C546.19,248.84,546.29,248.83,546.4,248.82"/>
<path class="st3" d="M470.26,302.45c0.21-0.03,0.41-0.09,0.62-0.15c48.91-16.33,77.47-53.75,78.66-55.34
	c1.25-1.66,0.91-4.03-0.75-5.29c-1.67-1.25-4.03-0.92-5.29,0.74c-0.28,0.37-28.42,37.15-75.02,52.71c-1.98,0.66-3.05,2.8-2.39,4.78
	C466.69,301.69,468.47,302.73,470.26,302.45"/>
<path class="st3" d="M550.1,283.84c2.04-0.32,3.45-2.22,3.15-4.26c-0.29-2.06-2.21-3.5-4.26-3.21c-0.43,0.06-42.5,5.67-84.45-19.53
	c-1.79-1.08-4.11-0.49-5.18,1.3c-1.07,1.79-0.49,4.11,1.29,5.17c44.35,26.64,87.59,20.8,89.41,20.53
	C550.07,283.84,550.08,283.84,550.1,283.84"/>
<path class="st3" d="M473.19,333.52c0.21-0.03,0.41-0.09,0.62-0.15c48.78-16.29,77.94-49.54,79.15-50.94
	c1.37-1.57,1.2-3.96-0.38-5.32c-1.58-1.37-3.96-1.19-5.33,0.38c-0.28,0.33-29.1,33.12-75.84,48.73c-1.98,0.65-3.05,2.79-2.38,4.78
	C469.62,332.76,471.4,333.8,473.19,333.52"/>
<path class="st3" d="M548.44,319.4c1.3-0.2,2.08-0.36,2.28-0.41c1.85-0.4,3.02-2.21,2.62-4.06c-0.39-1.85-2.27-3.02-4.06-2.63
	c-0.35,0.08-36.97,7.51-74.82-15.22c-1.62-0.97-3.72-0.45-4.69,1.17c-0.97,1.62-0.44,3.72,1.17,4.7
	C506.12,324.07,539.5,320.8,548.44,319.4"/>
</svg>
