<?xml version="1.0" encoding="utf-8"?>
<!-- Generator: Adobe Illustrator 24.2.0, SVG Export Plug-In . SVG Version: 6.00 Build 0)  -->
<svg version="1.1" id="Layer_1" xmlns="http://www.w3.org/2000/svg" xmlns:xlink="http://www.w3.org/1999/xlink" x="0px" y="0px"
	 viewBox="0 0 841.89 595.28" style="enable-background:new 0 0 841.89 595.28;" xml:space="preserve">
<style type="text/css">
	.st0{fill:#23663F;}
	.st1{fill:#114426;}
	.st2{fill:#FFFFFF;}
	.st3{fill:#C8C6CC;}
	.st4{fill:#8B8992;}
</style>
<ellipse transform="matrix(0.7071 -0.7071 0.7071 0.7071 -87.1712 384.8291)" class="st0" cx="420.94" cy="297.64" rx="297.64" ry="297.64"/>
<path class="st1" d="M718.35,309.04l-211.2-211.2c-21.39-23.3-52.09-37.91-86.21-37.91c-64.61,0-116.99,52.38-116.99,116.99
	c0,34.06,14.57,64.7,37.8,86.08l40.61,40.73v190.63l38.59,40.98l54.87,54.87C610.37,565.14,713.06,449.56,718.35,309.04z"/>
<path class="st2" d="M537.94,176.93c0-64.61-52.38-116.99-116.99-116.99c-64.61,0-116.99,52.38-116.99,116.99
	c0,51.09,32.75,94.53,78.41,110.47v23.6v1.81v181.55l38.59,40.98l38.59-40.98v-23.05l-22.75-19.18l22.68-19.13l-22.68-19.13
	l22.68-19.13l-22.68-19.13l22.75-19.18v-43.64h15.53v-32.15C512.43,261.14,537.94,222.02,537.94,176.93z M420.95,93.24
	c15.58,0,28.22,12.63,28.22,28.21c0,15.58-12.63,28.21-28.22,28.21c-15.58,0-28.21-12.63-28.21-28.21
	C392.74,105.87,405.37,93.24,420.95,93.24z"/>
<path class="st3" d="M420.95,59.94v33.3c15.58,0,28.22,12.63,28.22,28.21c0,15.58-12.63,28.21-28.22,28.21v385.68l0,0l38.59-40.98
	v-23.05l-22.75-19.18l22.68-19.13l-22.68-19.13l22.68-19.13l-22.68-19.13l22.75-19.18v-43.64h15.53v-32.14
	c37.37-19.53,62.88-58.66,62.88-103.74C537.94,112.32,485.56,59.94,420.95,59.94z"/>
<polygon class="st4" points="420.95,311.01 420.95,535.35 402.55,515.81 402.55,311.01 "/>
</svg>
