<svg xmlns="http://www.w3.org/2000/svg" width="21.78" height="27.25" viewBox="0 0 21.78 27.25">
  <defs>
    <style>
      .cls-1 {
        fill: #23663f;
        fill-rule: evenodd;
      }
    </style>
  </defs>
  <path id="conseils" class="cls-1" d="M1514.46,47.391h-12.68a0.4,0.4,0,1,0,0,.8h12.68A0.4,0.4,0,1,0,1514.46,47.391Zm0,2.646h-12.68a0.4,0.4,0,1,0,0,.8h12.68A0.4,0.4,0,1,0,1514.46,50.037Zm0,2.646h-12.68a0.4,0.4,0,1,0,0,.8h12.68A0.4,0.4,0,1,0,1514.46,52.682Zm0,2.646h-6.34a0.4,0.4,0,1,0,0,.8h6.34A0.4,0.4,0,1,0,1514.46,55.328Zm0,2.646h-6.34a0.4,0.4,0,1,0,0,.8h6.34A0.4,0.4,0,1,0,1514.46,57.974Zm2.72-2.789a0.4,0.4,0,0,0,.4-0.4V38.693a1.318,1.318,0,0,0-1.32-1.315h-16.75a1.936,1.936,0,0,0-3.68.838V61.608h0a1.937,1.937,0,0,0,1.93,1.935h15.59a1.318,1.318,0,0,0,1.32-1.315V61.563h1.59a1.318,1.318,0,0,0,1.32-1.315V53.481a0.4,0.4,0,0,0-.8,0v6.767a0.517,0.517,0,0,1-.52.517H1499.7V38.176h16.56a0.517,0.517,0,0,1,.52.516V54.785a0.4,0.4,0,0,0,.4.4h0Zm-20.55-16.969a1.135,1.135,0,1,1,2.27,0v21.83a1.923,1.923,0,0,0-2.27,0V38.216Zm17.24,24.011a0.517,0.517,0,0,1-.52.517h-15.59a1.135,1.135,0,1,1,1.09-1.464,0.4,0.4,0,0,0,.38.284h14.64v0.664Zm0.99-21.666a0.736,0.736,0,0,0-.74-0.734h-10.79a0.4,0.4,0,1,0,0,.8h10.73V45.1h-11.88V40.626h1.41a0.4,0.4,0,1,0,0-.8h-1.48a0.734,0.734,0,0,0-.73.734v4.6a0.734,0.734,0,0,0,.73.733h12.01a0.736,0.736,0,0,0,.74-0.733v-4.6Zm-12.75,14.767a0.734,0.734,0,0,0-.73.733V58.04a0.734,0.734,0,0,0,.73.734h3.88a0.734,0.734,0,0,0,.73-0.734V56.062a0.734,0.734,0,0,0-.73-0.733h-3.88Zm3.81,2.646h-3.74V56.127h3.74v1.847Z" transform="translate(-1495.81 -36.281)"/>
</svg>
