<?xml version="1.0" encoding="utf-8"?>
<!-- Generator: Adobe Illustrator 24.2.0, SVG Export Plug-In . SVG Version: 6.00 Build 0)  -->
<svg version="1.1" id="Layer_1" xmlns="http://www.w3.org/2000/svg" xmlns:xlink="http://www.w3.org/1999/xlink" x="0px" y="0px"
	 viewBox="0 0 841.89 595.28" style="enable-background:new 0 0 841.89 595.28;" xml:space="preserve">
<style type="text/css">
	.st0{fill:#23663F;}
	.st1{fill:#114426;}
	.st2{fill:#FFFFFF;}
	.st3{fill:#C8C6CC;}
	.st4{fill:#8B8992;}
</style>
<ellipse transform="matrix(0.7071 -0.7071 0.7071 0.7071 -87.1712 384.8291)" class="st0" cx="420.94" cy="297.64" rx="297.64" ry="297.64"/>
<path class="st1" d="M718.35,309.04L608.47,199.16c-21.39-23.3-138.85,74.38-154.94-20.43c-10.81-63.7-22.5,20.88-22.5,85.5
	c0,34.06-112.51-22.6-89.28-1.23l40.61,40.73l37.58,185.68l55.88,100.8l0,0C610.37,565.14,713.06,449.56,718.35,309.04z"/>
<path class="st2" d="M262.57,452.18c2.25,3.14,6.37,4.35,9.95,2.89c14.83-6.07,31.07-9.41,48.08-9.41
	c36.59,0,69.57,15.43,92.75,40.14c4.52,4.82,12.25,4.82,16.77,0c23.19-24.71,56.17-40.14,92.76-40.14c15.72,0,30.78,2.85,44.68,8.07
	c4.02,1.51,8.58,0.14,11.05-3.37c11.86-16.92,21.75-35.78,29.26-56.09c1.32-3.56,0.39-7.6-2.41-10.17
	c-25.38-23.18-41.29-56.52-41.29-93.58c0-34.14,13.51-65.13,35.48-87.92c2.7-2.79,3.5-6.91,1.92-10.46
	c-11.71-26.24-27.53-49.61-46.47-68.98c-2.64-2.7-6.66-3.64-10.19-2.28c-6.83,2.63-14.26,4.08-22.03,4.08
	c-30.01,0-54.98-21.58-60.17-50.04c-0.68-3.73-3.6-6.67-7.32-7.43c-11.52-2.34-23.37-3.56-35.47-3.56c-10.72,0-21.24,0.96-31.51,2.8
	c-3.86,0.69-6.9,3.74-7.56,7.6c-4.94,28.75-30.04,50.63-60.27,50.63c-8.55,0-16.7-1.75-24.09-4.93c-3.61-1.55-7.8-0.85-10.56,1.93
	c-18.62,18.76-34.28,41.37-46.08,66.76c-1.68,3.61-0.89,7.91,1.98,10.68c23.84,23.04,38.66,55.34,38.66,91.1
	c0,38.66-17.32,73.28-44.65,96.53c-3.02,2.57-4.04,6.8-2.62,10.49C240.88,417.34,250.78,435.7,262.57,452.18z"/>
<path class="st3" d="M419.95,489.42c5.67,1.2,5.67,1.2,10.19-3.61c23.19-24.71,56.17-40.14,92.76-40.14
	c15.72,0,30.78,2.85,44.68,8.07c4.03,1.51,8.58,0.14,11.05-3.37c11.86-16.93,21.75-35.77,29.26-56.09
	c1.32-3.56,0.39-7.61-2.42-10.17c-25.38-23.18-41.29-56.53-41.29-93.58c0-34.14,13.51-65.13,35.48-87.92
	c2.69-2.8,3.5-6.91,1.92-10.46c-11.72-26.24-27.53-49.61-46.47-68.98c-2.64-2.7-6.66-3.64-10.19-2.28
	c-6.83,2.64-14.26,4.08-22.03,4.08c-17.2,0-32.73-7.1-43.84-18.5c11.49,36.64,17.69,75.61,17.69,116.03"/>
<path class="st3" d="M419.95,63.94v425.48l81.5-118.28l22-197l-28.58-55.96c0,0-21.88-10.67-31.15-38.86
	C463.71,79.32,472.45,63.73,419.95,63.94z"/>
<path class="st4" d="M447.81,444.97c-2.37,0-4.67-1.25-5.91-3.46c-1.82-3.25-0.65-7.36,2.61-9.18c1.9-1.06,3.85-2.09,5.82-3.08
	c3.33-1.68,7.4-0.35,9.08,2.98c1.69,3.32,0.35,7.38-2.99,9.06c-1.8,0.91-3.59,1.86-5.33,2.82
	C450.05,444.69,448.92,444.97,447.81,444.97z M474.15,433.36c-2.83,0-5.47-1.79-6.41-4.61c-1.18-3.53,0.73-7.35,4.27-8.54
	c2.09-0.69,4.2-1.35,6.28-1.95c3.59-1.03,7.34,1.02,8.38,4.6c1.04,3.58-1.02,7.32-4.61,8.36c-1.91,0.55-3.85,1.15-5.76,1.79
	C475.58,433.25,474.86,433.36,474.15,433.36z M563.55,430.83c-0.59,0-1.19-0.08-1.78-0.24c-1.3-0.35-2.6-0.69-3.91-1.01
	c-3.63-0.89-5.85-4.54-4.97-8.16c0.89-3.62,4.55-5.84,8.17-4.95c0.04,0.01,0.08,0.02,0.12,0.03c2.07-1.22,4.72-1.31,6.92,0.01
	c3.2,1.92,4.24,6.06,2.33,9.25c-0.37,0.62-0.74,1.23-1.12,1.84C568.06,429.65,565.86,430.83,563.55,430.83z M502.19,426.82
	c-3.33,0-6.23-2.45-6.69-5.84c-0.51-3.69,2.08-7.1,5.78-7.6c2.16-0.3,4.36-0.55,6.54-0.76c3.73-0.35,7.02,2.37,7.37,6.08
	c0.35,3.71-2.37,7-6.09,7.36c-1.99,0.19-4.01,0.42-5.99,0.69C502.8,426.8,502.49,426.82,502.19,426.82z M537.27,426.07
	c-0.21,0-0.42-0.01-0.63-0.03c-2-0.18-4.02-0.33-6.02-0.43c-3.73-0.19-6.6-3.36-6.4-7.09c0.19-3.72,3.35-6.59,7.1-6.39
	c2.18,0.11,4.39,0.27,6.57,0.47c3.72,0.34,6.45,3.63,6.11,7.34C543.66,423.44,540.72,426.07,537.27,426.07z M575.19,409.2
	c-0.96,0-1.93-0.21-2.86-0.64c-3.38-1.58-4.84-5.6-3.26-8.97c0.85-1.82,1.7-3.69,2.51-5.57c1.49-3.42,5.47-4.99,8.89-3.5
	c3.42,1.48,5,5.46,3.51,8.88c-0.87,2-1.77,3.99-2.67,5.92C580.17,407.75,577.73,409.2,575.19,409.2z M565.22,385.76
	c-2.13,0-4.22-1-5.54-2.87c-1.26-1.79-2.5-3.63-3.67-5.45c-2.02-3.13-1.11-7.31,2.03-9.33c3.14-2.01,7.32-1.11,9.34,2.03
	c1.08,1.67,2.21,3.36,3.37,5c2.15,3.05,1.41,7.26-1.65,9.4C567.92,385.36,566.56,385.76,565.22,385.76z M550.94,360.8
	c-2.57,0-5.03-1.47-6.16-3.96c-0.91-1.99-1.78-4.02-2.6-6.04c-1.4-3.45,0.27-7.39,3.72-8.79c3.46-1.39,7.4,0.27,8.81,3.72
	c0.75,1.85,1.55,3.71,2.38,5.54c1.54,3.39,0.03,7.39-3.37,8.93C552.82,360.61,551.87,360.8,550.94,360.8z M541.53,333.63
	c-3.05,0-5.81-2.07-6.56-5.15c-0.52-2.12-1-4.27-1.43-6.41c-0.74-3.65,1.63-7.21,5.29-7.95c3.67-0.73,7.23,1.63,7.96,5.28
	c0.4,1.96,0.84,3.95,1.31,5.88c0.88,3.62-1.34,7.27-4.97,8.16C542.59,333.56,542.05,333.63,541.53,333.63z M537.34,305.18
	c-3.57,0-6.56-2.8-6.75-6.4c-0.11-2.19-0.18-4.4-0.21-6.57c-0.04-3.73,2.96-6.78,6.69-6.82c3.75-0.07,6.79,2.95,6.83,6.68
	c0.02,1.99,0.08,4.01,0.19,6.02c0.19,3.72-2.68,6.89-6.4,7.08C537.58,305.18,537.46,305.18,537.34,305.18z M538.55,276.46
	c-0.3,0-0.61-0.02-0.92-0.06c-3.7-0.5-6.3-3.9-5.79-7.59c0.29-2.17,0.64-4.35,1.01-6.49c0.65-3.67,4.15-6.12,7.83-5.47
	c3.67,0.65,6.13,4.15,5.48,7.82c-0.35,1.96-0.66,3.97-0.93,5.95C544.78,274,541.88,276.46,538.55,276.46z M545.05,248.45
	c-0.71,0-1.43-0.11-2.14-0.35c-3.54-1.18-5.46-5-4.27-8.54c0.69-2.07,1.43-4.15,2.21-6.19c1.32-3.49,5.24-5.23,8.72-3.91
	c3.49,1.32,5.24,5.22,3.92,8.71c-0.72,1.87-1.4,3.78-2.03,5.67C550.51,246.67,547.88,248.45,545.05,248.45z M556.69,222.17
	c-1.12,0-2.25-0.28-3.3-0.86c-3.26-1.82-4.42-5.94-2.59-9.19c1.07-1.91,2.2-3.82,3.34-5.67c1.96-3.17,6.13-4.16,9.3-2.2
	c3.18,1.96,4.17,6.11,2.21,9.29c-1.04,1.69-2.07,3.43-3.06,5.19C561.35,220.92,559.06,222.17,556.69,222.17z M571.33,198.33
	c-2.45,0-4.81-1.33-6.01-3.66c-0.93-1.8-1.9-3.62-2.88-5.38c-1.8-3.26-0.62-7.37,2.65-9.17c3.27-1.8,7.38-0.62,9.19,2.64
	c1.04,1.88,2.07,3.8,3.06,5.73c1.71,3.31,0.41,7.38-2.91,9.09C573.43,198.08,572.37,198.33,571.33,198.33z M556.44,173.7
	c-2.13,0-4.23-1-5.54-2.88c-1.16-1.65-2.36-3.31-3.58-4.93c-2.23-2.98-1.62-7.21,1.37-9.45c2.99-2.23,7.23-1.62,9.46,1.36
	c1.3,1.74,2.58,3.51,3.82,5.27c2.14,3.05,1.4,7.26-1.66,9.4C559.14,173.3,557.78,173.7,556.44,173.7z M529.87,158.44
	c-3.5,0-6.46-2.68-6.73-6.22c-0.29-3.72,2.49-6.96,6.21-7.25c1.93-0.15,3.88-0.37,5.79-0.66c3.68-0.55,7.13,1.98,7.69,5.67
	c0.56,3.68-1.99,7.12-5.67,7.68c-2.23,0.34-4.5,0.6-6.75,0.77C530.22,158.43,530.04,158.44,529.87,158.44z M507.44,157.36
	c-0.39,0-0.79-0.03-1.19-0.1c-2.22-0.39-4.45-0.87-6.64-1.42c-3.62-0.91-5.82-4.58-4.91-8.19c0.91-3.62,4.59-5.8,8.21-4.9
	c1.88,0.47,3.79,0.88,5.69,1.22c3.68,0.65,6.13,4.15,5.48,7.82C513.51,155.06,510.65,157.36,507.44,157.36z M480.36,147.83
	c-1.1,0-2.22-0.27-3.25-0.84c-1.97-1.08-3.93-2.25-5.83-3.48c-3.13-2.02-4.03-6.2-2.01-9.33c2.03-3.13,6.22-4.02,9.35-2
	c1.62,1.05,3.3,2.05,5,2.98c3.27,1.79,4.46,5.9,2.67,9.16C485.06,146.57,482.74,147.83,480.36,147.83z M457.79,130.12
	c-1.83,0-3.65-0.74-4.99-2.19c-1.52-1.66-3-3.4-4.4-5.16c-2.32-2.92-1.83-7.17,1.1-9.48c2.93-2.31,7.18-1.82,9.5,1.1
	c1.2,1.51,2.47,3,3.77,4.43c2.52,2.75,2.33,7.01-0.42,9.53C461.06,129.54,459.42,130.12,457.79,130.12z M442.12,106.11
	c-2.6,0-5.08-1.51-6.19-4.04c-0.91-2.06-1.75-4.19-2.5-6.31c-1.25-3.51,0.59-7.37,4.11-8.62c3.51-1.24,7.38,0.59,8.63,4.1
	c0.64,1.82,1.37,3.64,2.14,5.4c1.5,3.42-0.05,7.39-3.47,8.89C443.95,105.93,443.03,106.11,442.12,106.11z"/>
<path class="st3" d="M421.75,463.19c-1.57,0-3.15-0.54-4.43-1.65c-1.51-1.31-3.07-2.6-4.64-3.85c-2.92-2.33-3.39-6.57-1.07-9.49
	c2.33-2.91,6.58-3.39,9.5-1.07c0.21,0.17,0.42,0.34,0.63,0.51c1.04-0.83,2.08-1.66,3.12-2.45c2.96-2.27,7.21-1.7,9.48,1.25
	c2.27,2.96,1.71,7.19-1.25,9.46c-1.58,1.21-3.17,2.48-4.71,3.76c-0.38,0.32-0.79,0.59-1.21,0.81c-0.1,0.13-0.21,0.27-0.32,0.4
	C425.52,462.4,423.64,463.19,421.75,463.19z"/>
<path class="st3" d="M398.33,446.46c-1.16,0-2.33-0.3-3.4-0.92c-1.73-1.01-3.5-1.99-5.27-2.92c-3.3-1.75-4.56-5.83-2.81-9.13
	c1.75-3.29,5.83-4.55,9.14-2.8c1.93,1.02,3.87,2.1,5.75,3.2c3.22,1.88,4.31,6.01,2.43,9.22
	C402.92,445.26,400.65,446.46,398.33,446.46z"/>
<path class="st3" d="M372.21,434.34c-0.75,0-1.52-0.13-2.27-0.39c-1.89-0.67-3.82-1.31-5.73-1.9c-3.56-1.11-5.55-4.89-4.45-8.45
	c1.11-3.56,4.89-5.55,8.46-4.44c2.08,0.64,4.18,1.34,6.25,2.08c3.52,1.25,5.35,5.11,4.1,8.62
	C377.6,432.62,374.99,434.34,372.21,434.34z"/>
<path class="st3" d="M280.86,430.58c-2.99,0-5.72-1.99-6.53-5.01c-0.96-3.6,1.18-7.3,4.78-8.26c2.1-0.56,4.26-1.09,6.4-1.57
	c3.64-0.81,7.26,1.48,8.07,5.12c0.81,3.63-1.48,7.24-5.13,8.05c-1.96,0.44-3.93,0.92-5.85,1.43
	C282.02,430.51,281.43,430.58,280.86,430.58z"/>
<path class="st3" d="M344.31,427.26c-0.35,0-0.7-0.03-1.05-0.08c-1.98-0.31-3.99-0.58-5.98-0.81c-3.71-0.43-6.37-3.77-5.94-7.48
	c0.43-3.7,3.77-6.36,7.49-5.93c2.17,0.25,4.37,0.55,6.53,0.89c3.69,0.58,6.21,4.03,5.63,7.71
	C350.46,424.89,347.58,427.26,344.31,427.26z"/>
<path class="st3" d="M309.25,425.82c-3.51,0-6.48-2.71-6.73-6.26c-0.27-3.72,2.53-6.95,6.25-7.22c2.18-0.16,4.39-0.27,6.57-0.34
	c3.74-0.11,6.86,2.8,6.98,6.53c0.12,3.72-2.81,6.84-6.54,6.96c-2,0.07-4.03,0.17-6.03,0.32
	C309.58,425.82,309.42,425.82,309.25,425.82z"/>
<path class="st3" d="M267.88,415.69c-2.47,0-4.84-1.35-6.03-3.7c-0.97-1.91-1.93-3.87-2.86-5.82c-1.6-3.37-0.15-7.39,3.22-8.98
	c3.37-1.59,7.41-0.15,9,3.22c0.87,1.84,1.78,3.69,2.69,5.49c1.69,3.32,0.36,7.38-2.97,9.07
	C269.95,415.46,268.91,415.69,267.88,415.69z"/>
<path class="st3" d="M274.57,392.38c-1.46,0-2.94-0.47-4.18-1.44c-2.93-2.31-3.44-6.55-1.13-9.48c1.24-1.57,2.46-3.19,3.64-4.81
	c2.19-3.02,6.41-3.7,9.44-1.51c3.02,2.18,3.7,6.4,1.51,9.42c-1.28,1.77-2.61,3.53-3.97,5.25
	C278.56,391.5,276.57,392.38,274.57,392.38z"/>
<path class="st3" d="M290.19,368.23c-1.05,0-2.12-0.25-3.11-0.76c-3.31-1.72-4.6-5.8-2.88-9.1c0.92-1.78,1.82-3.59,2.67-5.4
	c1.58-3.37,5.61-4.83,8.99-3.25c3.38,1.58,4.84,5.6,3.25,8.97c-0.93,1.97-1.91,3.96-2.92,5.9
	C295,366.91,292.63,368.23,290.19,368.23z"/>
<path class="st3" d="M301.04,341.6c-0.64,0-1.3-0.09-1.95-0.29c-3.57-1.07-5.6-4.83-4.53-8.4c0.58-1.92,1.12-3.87,1.62-5.8
	c0.93-3.61,4.61-5.79,8.23-4.86c3.62,0.92,5.8,4.6,4.87,8.21c-0.54,2.11-1.14,4.23-1.77,6.33
	C306.63,339.71,303.95,341.6,301.04,341.6z"/>
<path class="st3" d="M306.72,313.42c-0.24,0-0.48-0.01-0.71-0.04c-3.71-0.39-6.41-3.71-6.02-7.42c0.21-1.98,0.38-4,0.51-6
	c0.24-3.72,3.44-6.54,7.18-6.3c3.72,0.24,6.55,3.45,6.31,7.16c-0.14,2.18-0.33,4.38-0.56,6.55
	C313.07,310.84,310.13,313.42,306.72,313.42z"/>
<path class="st3" d="M307.05,284.67c-3.49,0-6.45-2.68-6.73-6.21c-0.16-2-0.36-4.01-0.6-5.99c-0.45-3.7,2.19-7.06,5.9-7.51
	c3.69-0.45,7.08,2.19,7.52,5.89c0.26,2.16,0.48,4.36,0.66,6.54c0.3,3.71-2.48,6.97-6.2,7.27
	C307.41,284.66,307.23,284.67,307.05,284.67z"/>
<path class="st3" d="M302.09,256.35c-2.97,0-5.7-1.97-6.52-4.97c-0.53-1.93-1.1-3.87-1.71-5.77c-1.13-3.55,0.83-7.35,4.39-8.48
	c3.56-1.13,7.36,0.83,8.49,4.38c0.67,2.08,1.3,4.2,1.87,6.31c0.99,3.59-1.13,7.31-4.74,8.29
	C303.28,256.27,302.68,256.35,302.09,256.35z"/>
<path class="st3" d="M291.9,229.46c-2.5,0-4.9-1.38-6.07-3.77c-0.88-1.79-1.81-3.59-2.77-5.34c-1.79-3.27-0.57-7.37,2.7-9.15
	c3.28-1.78,7.39-0.57,9.17,2.7c1.04,1.92,2.06,3.88,3.03,5.84c1.65,3.35,0.27,7.39-3.08,9.03
	C293.92,229.24,292.91,229.46,291.9,229.46z"/>
<path class="st3" d="M276.81,204.98c-2.05,0-4.07-0.92-5.4-2.68c-1.21-1.6-2.46-3.19-3.73-4.73c-2.37-2.88-1.94-7.14,0.94-9.5
	c2.89-2.36,7.15-1.94,9.51,0.94c1.38,1.68,2.75,3.42,4.07,5.16c2.25,2.98,1.65,7.21-1.33,9.45
	C279.66,204.54,278.23,204.98,276.81,204.98z"/>
<path class="st3" d="M278.49,181.11c-1.25,0-2.5-0.34-3.63-1.06c-3.15-2.01-4.07-6.18-2.06-9.32c1.16-1.82,2.37-3.65,3.59-5.43
	c2.1-3.08,6.31-3.87,9.39-1.78c3.09,2.1,3.88,6.3,1.78,9.38c-1.14,1.67-2.27,3.38-3.36,5.09
	C282.91,180.01,280.72,181.11,278.49,181.11z"/>
<path class="st3" d="M323.19,158.67c-3.65,0-6.65-2.9-6.76-6.55c-0.11-3.73,2.83-6.83,6.56-6.94c1.94-0.06,3.9-0.18,5.82-0.37
	c3.71-0.38,7.03,2.34,7.4,6.05c0.37,3.71-2.34,7.01-6.06,7.38c-2.23,0.22-4.51,0.37-6.77,0.43
	C323.32,158.67,323.26,158.67,323.19,158.67z"/>
<path class="st3" d="M295.66,158c-1.56,0-3.12-0.54-4.4-1.63c-2.83-2.43-3.15-6.69-0.72-9.51c0.69-0.8,1.38-1.59,2.08-2.38
	c1.7-1.92,4.34-2.7,6.82-2.04c0.95,0.26,1.93,0.5,2.91,0.72c3.64,0.83,5.91,4.46,5.08,8.09c-0.79,3.41-4.02,5.62-7.43,5.19
	C298.75,157.47,297.21,158,295.66,158z"/>
<path class="st3" d="M351.38,153.24c-2.75,0-5.33-1.69-6.34-4.41c-1.3-3.49,0.49-7.37,3.99-8.67c1.82-0.67,3.63-1.42,5.38-2.21
	c3.4-1.54,7.41-0.04,8.95,3.35c1.55,3.4,0.04,7.39-3.36,8.94c-2.05,0.93-4.16,1.8-6.28,2.58
	C352.96,153.1,352.16,153.24,351.38,153.24z"/>
<path class="st3" d="M376.32,139.03c-1.97,0-3.92-0.85-5.25-2.49c-2.35-2.89-1.92-7.14,0.98-9.49c1.5-1.21,2.97-2.5,4.39-3.82
	c2.72-2.55,7-2.42,9.55,0.29c2.56,2.72,2.42,6.99-0.3,9.54c-1.65,1.54-3.37,3.04-5.11,4.46
	C379.33,138.53,377.82,139.03,376.32,139.03z"/>
<path class="st3" d="M395.33,117.57c-1.23,0-2.47-0.33-3.58-1.03c-3.16-1.98-4.12-6.14-2.14-9.3c1.03-1.64,2.01-3.33,2.91-5.03
	c1.75-3.29,5.84-4.54,9.14-2.8c3.3,1.75,4.55,5.83,2.8,9.13c-1.06,1.98-2.2,3.96-3.4,5.87
	C399.78,116.45,397.58,117.57,395.33,117.57z"/>
<path class="st3" d="M411.95,97.89c-3.57,0-6.55-2.79-6.74-6.39c-0.2-3.72,2.66-6.9,6.39-7.1c2.19-0.12,4.41-0.19,6.59-0.21h0.08
	c3.7,0,6.71,2.97,6.76,6.67c0.04,3.73-2.95,6.78-6.68,6.82c-1.99,0.02-4.02,0.09-6.03,0.2C412.19,97.89,412.07,97.89,411.95,97.89z"
	/>
<path class="st4" d="M419.95,84.41L419.95,84.41c3.7,0,5.03,2.75,5.08,6.45c0.04,3.73-1.35,6.56-5.08,6.6V84.41z"/>
<path class="st4" d="M419.95,446.39c0.21,0.17,1.59,1.09,1.81,1.26c1.04-0.83,2.08-1.66,3.12-2.45c2.96-2.27,7.21-1.7,9.48,1.25
	c2.27,2.96,1.71,7.19-1.25,9.46c-1.58,1.21-3.17,2.48-4.71,3.76c-0.38,0.32-0.79,0.59-1.21,0.81c-0.1,0.13-0.21,0.27-0.32,0.4
	c-2.68,1.56-5.02,2.32-6.91,2.32V446.39z"/>
</svg>
