<?xml version="1.0" encoding="utf-8"?>
<!-- Generator: Adobe Illustrator 24.2.0, SVG Export Plug-In . SVG Version: 6.00 Build 0)  -->
<svg version="1.1" id="Layer_1" xmlns="http://www.w3.org/2000/svg" xmlns:xlink="http://www.w3.org/1999/xlink" x="0px" y="0px"
	 viewBox="0 0 841.89 595.28" style="enable-background:new 0 0 841.89 595.28;" xml:space="preserve">
<style type="text/css">
	.st0{fill:#23663F;}
	.st1{fill:#114426;}
	.st2{fill:#FFFFFF;}
	.st3{fill:#C8C6CC;}
	.st4{clip-path:url(#SVGID_2_);fill:#C8C6CC;}
	.st5{clip-path:url(#SVGID_4_);}
	.st6{fill:#8B8992;}
	.st7{clip-path:url(#SVGID_6_);fill:#FFFFFF;}
	.st8{clip-path:url(#SVGID_8_);}
</style>
<ellipse transform="matrix(0.7071 -0.7071 0.7071 0.7071 -87.1712 384.8291)" class="st0" cx="420.94" cy="297.64" rx="297.64" ry="297.64"/>
<path class="st1" d="M718.35,309.04l-100.4-47.07c-30.01,8.1-189.28,110.95-185.42,68.95c1.61-17.55-1.5-131.31-1.5-66.7
	c0,34.06-112.51-22.6-89.28-1.23l44.13,31.94l16.85,128.81l73.09,166.46l0,0C610.37,565.14,713.06,449.56,718.35,309.04z"/>
<polygon class="st2" points="441.43,133.17 226.2,133.17 226.2,294.95 326.37,294.95 307.52,339.72 385.88,294.95 441.43,294.95 "/>
<g>
	<path class="st3" d="M314.07,214.05c0,6.59-5.34,11.94-11.94,11.94c-6.59,0-11.93-5.34-11.93-11.94c0-6.59,5.35-11.94,11.93-11.94
		C308.73,202.12,314.07,207.46,314.07,214.05z"/>
	<path class="st3" d="M345.75,214.05c0,6.59-5.34,11.94-11.94,11.94s-11.94-5.34-11.94-11.94c0-6.59,5.34-11.94,11.94-11.94
		S345.75,207.46,345.75,214.05z"/>
	<path class="st3" d="M377.43,214.05c0,6.59-5.35,11.94-11.94,11.94c-6.59,0-11.94-5.34-11.94-11.94c0-6.59,5.35-11.94,11.94-11.94
		C372.08,202.12,377.43,207.46,377.43,214.05z"/>
</g>
<g>
	<defs>
		<rect id="SVGID_1_" x="333.82" y="93.44" width="128.53" height="259.67"/>
	</defs>
	<clipPath id="SVGID_2_">
		<use xlink:href="#SVGID_1_"  style="overflow:visible;"/>
	</clipPath>
	<polygon class="st4" points="441.43,133.17 226.2,133.17 226.2,294.95 326.37,294.95 307.52,339.72 385.88,294.95 441.43,294.95 	
		"/>
</g>
<g>
	<defs>
		<rect id="SVGID_3_" x="333.82" y="154.01" width="56.58" height="106.1"/>
	</defs>
	<clipPath id="SVGID_4_">
		<use xlink:href="#SVGID_3_"  style="overflow:visible;"/>
	</clipPath>
	<g class="st5">
		<path class="st6" d="M365.49,202.12c6.59,0,11.93,5.35,11.93,11.94c0,6.59-5.35,11.94-11.93,11.94c-6.59,0-11.94-5.34-11.94-11.94
			C353.56,207.46,358.9,202.12,365.49,202.12z"/>
		<path class="st6" d="M333.81,202.12c6.59,0,11.94,5.35,11.94,11.94c0,6.59-5.34,11.94-11.94,11.94c-6.59,0-11.93-5.34-11.93-11.94
			C321.88,207.46,327.22,202.12,333.81,202.12z"/>
		<path class="st6" d="M302.14,202.12c6.59,0,11.94,5.35,11.94,11.94c0,6.59-5.34,11.94-11.94,11.94c-6.59,0-11.94-5.34-11.94-11.94
			C290.2,207.46,295.55,202.12,302.14,202.12z"/>
	</g>
</g>
<polygon class="st3" points="402.73,261.98 617.96,261.98 617.96,423.76 517.79,423.76 536.64,468.53 458.28,423.76 402.73,423.76 
	"/>
<g>
	<path class="st6" d="M542.02,330.93c6.59,0,11.94,5.34,11.94,11.94c0,6.59-5.34,11.94-11.94,11.94c-6.59,0-11.94-5.35-11.94-11.94
		C530.09,336.27,535.43,330.93,542.02,330.93z"/>
	<path class="st6" d="M510.35,330.93c6.59,0,11.93,5.34,11.93,11.94c0,6.59-5.34,11.94-11.93,11.94c-6.59,0-11.94-5.35-11.94-11.94
		C498.41,336.27,503.75,330.93,510.35,330.93z"/>
	<path class="st6" d="M478.67,330.93c6.59,0,11.94,5.34,11.94,11.94c0,6.59-5.34,11.94-11.94,11.94c-6.59,0-11.94-5.35-11.94-11.94
		C466.73,336.27,472.08,330.93,478.67,330.93z"/>
</g>
<g>
	<defs>
		<rect id="SVGID_5_" x="381.82" y="222.25" width="128.53" height="259.67"/>
	</defs>
	<clipPath id="SVGID_6_">
		<use xlink:href="#SVGID_5_"  style="overflow:visible;"/>
	</clipPath>
	<polygon class="st7" points="402.73,261.98 617.96,261.98 617.96,423.76 517.79,423.76 536.64,468.53 458.28,423.76 402.73,423.76 
			"/>
</g>
<g>
	<defs>
		<rect id="SVGID_7_" x="453.77" y="282.82" width="56.58" height="106.1"/>
	</defs>
	<clipPath id="SVGID_8_">
		<use xlink:href="#SVGID_7_"  style="overflow:visible;"/>
	</clipPath>
	<g class="st8">
		<path class="st3" d="M490.61,342.86c0,6.59-5.34,11.94-11.93,11.94c-6.59,0-11.94-5.35-11.94-11.94c0-6.59,5.34-11.94,11.94-11.94
			C485.26,330.93,490.61,336.27,490.61,342.86z"/>
		<path class="st3" d="M522.28,342.86c0,6.59-5.34,11.94-11.94,11.94c-6.59,0-11.94-5.35-11.94-11.94c0-6.59,5.34-11.94,11.94-11.94
			C516.94,330.93,522.28,336.27,522.28,342.86z"/>
		<path class="st6" d="M553.96,342.86c0,6.59-5.35,11.94-11.94,11.94c-6.59,0-11.94-5.35-11.94-11.94c0-6.59,5.35-11.94,11.94-11.94
			C548.61,330.93,553.96,336.27,553.96,342.86z"/>
	</g>
</g>
</svg>
