<svg xmlns="http://www.w3.org/2000/svg" width="15.75" height="15.09" viewBox="0 0 15.75 15.09">
  <defs>
    <style>
      .cls-1 {
        fill: #23663f;
        fill-rule: evenodd;
      }
    </style>
  </defs>
  <path id="etoile" class="cls-1" d="M692.2,4231.7a0.83,0.83,0,0,0-.72-0.57l-4.544-.42-1.8-4.2a0.836,0.836,0,0,0-1.54,0l-1.8,4.2-4.544.42a0.83,0.83,0,0,0-.72.57,0.839,0.839,0,0,0,.244.89l3.435,3.01-1.013,4.46a0.846,0.846,0,0,0,.326.87,0.878,0.878,0,0,0,.49.16,0.828,0.828,0,0,0,.429-0.12l3.919-2.34,3.917,2.34a0.838,0.838,0,0,0,1.246-.91l-1.013-4.46,3.435-3.01A0.837,0.837,0,0,0,692.2,4231.7Z" transform="translate(-676.5 -4226)"/>
</svg>
