<svg xmlns="http://www.w3.org/2000/svg" width="41.281" height="28.156" viewBox="0 0 41.281 28.156">
  <defs>
    <style>
      .cls-1 {
        fill: #23663f;
        fill-rule: evenodd;
      }
    </style>
  </defs>
  <path id="marteau" class="cls-1" d="M143.1,51.492l-0.891-1.7a1.522,1.522,0,0,0-1.921-.7L140,48.525l0.2-.107a1.042,1.042,0,0,0,.44-1.4l-2.959-5.67a8.333,8.333,0,0,0-3.759-3.611c-0.232-.111-0.47-0.212-0.706-0.3a6.615,6.615,0,0,0-4.115-.238,1.04,1.04,0,0,0-.226,1.908c3.137,1.763,3.643,3.155,3.715,3.671A1.694,1.694,0,0,1,132,44.229a1.042,1.042,0,0,0-.3.838l-11.1,5.8a1.181,1.181,0,0,0-1.4-.236l-0.832.435a1.185,1.185,0,0,0-.609,1.278l-2.516.673-0.009,0a16.779,16.779,0,0,0-3.073,1.238L103.851,58.6a3.463,3.463,0,0,0,.4,6.315c0.056,0.021.112,0.04,0.17,0.058a3.439,3.439,0,0,0,2.64-.236l8.306-4.342a16.859,16.859,0,0,0,2.774-1.82l1.992-1.686a1.177,1.177,0,0,0,.442.29l0.058,0.02a1.171,1.171,0,0,0,.9-0.08l0.832-.435a1.179,1.179,0,0,0,.607-1.286l11.051-5.777,0.354,0.672a1.042,1.042,0,0,0,1.4.437l0.143-.074,0.288,0.552-0.233.122a1.52,1.52,0,0,0-.643,2.052l0.891,1.7a1.515,1.515,0,0,0,.818.721l0.075,0.025a1.509,1.509,0,0,0,1.159-.1l4.186-2.189A1.523,1.523,0,0,0,143.1,51.492ZM121.75,55.625l-0.745.389-2.028-3.879,0.745-.39Zm-18.276,7.085a2.237,2.237,0,0,1,.945-3.017l8.307-4.343a15.625,15.625,0,0,1,2.841-1.145l2.726-.729,1.221,2.335-2.152,1.821a15.618,15.618,0,0,1-2.564,1.681l-8.307,4.343A2.234,2.234,0,0,1,103.474,62.709ZM133.448,48.54L122.44,54.3l-1.233-2.358,11-5.751Zm0.363-5.935c-0.259-1.865-2.481-3.475-3.918-4.333a5.588,5.588,0,0,1,2.9.313,7.127,7.127,0,0,1,3.81,3.328l2.873,5.505-4.1,2.144L132.966,45A2.832,2.832,0,0,0,133.811,42.605Zm8.225,9.679a0.288,0.288,0,0,1-.144.172l-4.186,2.189a0.295,0.295,0,0,1-.4-0.124l-0.891-1.7a0.3,0.3,0,0,1,.124-0.4l4.187-2.189a0.292,0.292,0,0,1,.224-0.02l0.014,0a0.3,0.3,0,0,1,.159.139l0.89,1.7A0.287,0.287,0,0,1,142.036,52.284ZM139.2,49.645l-1.908,1-0.288-.552,1.908-1Z" transform="translate(-102 -37)"/>
</svg>
