<?xml version="1.0" encoding="utf-8"?>
<!-- Generator: Adobe Illustrator 24.2.0, SVG Export Plug-In . SVG Version: 6.00 Build 0)  -->
<svg version="1.1" id="Layer_1" xmlns="http://www.w3.org/2000/svg" xmlns:xlink="http://www.w3.org/1999/xlink" x="0px" y="0px"
	 viewBox="0 0 841.89 595.28" style="enable-background:new 0 0 841.89 595.28;" xml:space="preserve">
<style type="text/css">
	.st0{fill:#23663F;}
	.st1{fill:#114426;}
	.st2{fill:#FFFFFF;}
	.st3{fill:#C8C6CC;}
	.st4{fill:#8B8992;}
</style>
<ellipse transform="matrix(0.7071 -0.7071 0.7071 0.7071 -87.1712 384.8291)" class="st0" cx="420.94" cy="297.64" rx="297.64" ry="297.64"/>
<path class="st1" d="M718.35,309.04L579.92,164.52c-30.01,8.1-130.23,56.21-126.38,14.21c1.61-17.55-22.5,20.88-22.5,85.5
	c0,34.06-112.51-22.6-89.28-1.23l40.61,40.73L245.44,438.76l189,156.53l41.38-5.06C610.37,565.14,713.06,449.56,718.35,309.04z"/>
<polygon class="st2" points="239.42,164.52 239.42,438.76 579.92,438.76 579.92,354.12 579.92,249.17 579.92,164.52 "/>
<polygon class="st3" points="409.67,164.52 409.67,438.76 579.92,438.76 579.92,354.12 579.92,249.17 579.92,164.52 "/>
<path class="st4" d="M604.47,354.12H502.16c-28.98,0-52.48-23.5-52.48-52.48l0,0c0-28.98,23.49-52.48,52.48-52.48h102.31V354.12z"/>
<path class="st3" d="M513.34,277.73c13.2,0,23.91,10.7,23.91,23.91s-10.7,23.91-23.91,23.91c-13.2,0-23.91-10.7-23.91-23.91
	S500.14,277.73,513.34,277.73z"/>
</svg>
