<svg xmlns="http://www.w3.org/2000/svg" width="18.656" height="28.469" viewBox="0 0 18.656 28.469">
  <defs>
    <style>
      .cls-1 {
        fill: #23663f;
        fill-rule: evenodd;
      }
    </style>
  </defs>
  <path id="pschiit" class="cls-1" d="M244.058,63.642a0.444,0.444,0,0,1-.444-0.445V45.409a0.445,0.445,0,1,1,.889,0V63.2A0.445,0.445,0,0,1,244.058,63.642Zm0.89,0.889a1.335,1.335,0,0,1-1.334-1.334,0.445,0.445,0,1,1,.889,0,0.445,0.445,0,0,0,.445.445A0.445,0.445,0,0,1,244.948,64.531Zm10.673-.889a0.445,0.445,0,0,1-.445-0.445V45.409a0.445,0.445,0,0,1,.89,0V63.2A0.445,0.445,0,0,1,255.621,63.642Zm-0.89.889a0.445,0.445,0,0,1,0-.889,0.445,0.445,0,0,0,.445-0.445,0.445,0.445,0,0,1,.89,0A1.336,1.336,0,0,1,254.731,64.531Zm0,0h-9.783a0.445,0.445,0,1,1,0-.889h9.783A0.445,0.445,0,1,1,254.731,64.531ZM244.058,45.853a0.445,0.445,0,0,1-.4-0.644l0.889-1.779a0.445,0.445,0,0,1,.8.4l-0.89,1.779A0.445,0.445,0,0,1,244.058,45.853Zm11.563,0a0.444,0.444,0,0,1-.4-0.246l-0.89-1.779a0.445,0.445,0,0,1,.8-0.4l0.889,1.779A0.444,0.444,0,0,1,255.621,45.853Zm-0.445-1.779H244.5a0.445,0.445,0,1,1,0-.889h10.673A0.445,0.445,0,1,1,255.176,44.074Zm-9.784-.445a0.444,0.444,0,0,1-.444-0.445,2.226,2.226,0,0,1,2.223-2.224,0.445,0.445,0,1,1,0,.889,1.336,1.336,0,0,0-1.334,1.334A0.444,0.444,0,0,1,245.392,43.63Zm8.9,0a0.444,0.444,0,0,1-.445-0.445,1.336,1.336,0,0,0-1.334-1.334,0.445,0.445,0,1,1,0-.889,2.226,2.226,0,0,1,2.223,2.224A0.444,0.444,0,0,1,254.287,43.63Zm-1.779-1.779h-5.337a0.445,0.445,0,0,1,0-.889h5.337A0.445,0.445,0,1,1,252.508,41.851Zm-7.116,2.224a0.444,0.444,0,0,1-.444-0.445V43.185a0.445,0.445,0,1,1,.889,0V43.63A0.445,0.445,0,0,1,245.392,44.074Zm8.9,0a0.445,0.445,0,0,1-.445-0.445V43.185a0.445,0.445,0,1,1,.889,0V43.63A0.444,0.444,0,0,1,254.287,44.074Zm-6.671-2.224a0.445,0.445,0,0,1-.445-0.445V40.072a0.445,0.445,0,0,1,.89,0v1.334A0.445,0.445,0,0,1,247.616,41.851Zm4.447-1.334h-4.447a0.445,0.445,0,1,1,0-.889h4.447A0.445,0.445,0,1,1,252.063,40.517Zm0,1.334a0.445,0.445,0,0,1-.445-0.445V40.072a0.445,0.445,0,0,1,.89,0v1.334A0.445,0.445,0,0,1,252.063,41.851Zm-3.558-1.334a0.444,0.444,0,0,1-.444-0.445V37.848a0.445,0.445,0,1,1,.889,0v2.224A0.445,0.445,0,0,1,248.505,40.517Zm2.669-2.223h-2.669a0.445,0.445,0,0,1,0-.89h2.669A0.445,0.445,0,0,1,251.174,38.293Zm0,2.223a0.445,0.445,0,0,1-.445-0.445V37.848a0.445,0.445,0,1,1,.889,0v2.224A0.444,0.444,0,0,1,251.174,40.517Zm3.557-2.223a0.444,0.444,0,0,1-.081-0.881l7.115-1.334a0.445,0.445,0,1,1,.164.874l-7.115,1.334A0.474,0.474,0,0,1,254.731,38.293Zm7.116,4a0.449,0.449,0,0,1-.083-0.008l-7.115-1.334a0.445,0.445,0,1,1,.164-0.874l7.116,1.334A0.445,0.445,0,0,1,261.847,42.3Zm-3.113-2.668h-4a0.445,0.445,0,0,1,0-.889h4A0.445,0.445,0,1,1,258.734,39.627Zm3.113,0h-1.779a0.445,0.445,0,1,1,0-.889h1.779A0.445,0.445,0,0,1,261.847,39.627ZM255.621,63.2H244.058a0.445,0.445,0,0,1,0-.889h11.563A0.445,0.445,0,1,1,255.621,63.2Zm-2.675-7.116h-6.222a0.445,0.445,0,1,1,0-.889h6.222A0.445,0.445,0,1,1,252.946,56.081Zm0,1.335h-6.222a0.445,0.445,0,1,1,0-.889h6.222A0.445,0.445,0,1,1,252.946,57.417Zm-2.224,1.335h-1.775a0.445,0.445,0,1,1,0-.889h1.775A0.445,0.445,0,1,1,250.722,58.752Zm2.225-4.891h-6.226a0.445,0.445,0,0,1-.445-0.445V52.082a0.445,0.445,0,0,1,.445-0.445h6.226a0.445,0.445,0,0,1,.445.445v1.334A0.445,0.445,0,0,1,252.947,53.861Zm-5.781-.889H252.5V52.527h-5.336v0.445Zm5.781-.889a0.445,0.445,0,0,1-.445-0.445,0.89,0.89,0,0,0-.889-0.889,0.445,0.445,0,1,1,0-.889,1.781,1.781,0,0,1,1.779,1.779A0.445,0.445,0,0,1,252.947,52.082Zm0,0.445a0.445,0.445,0,0,1-.445-0.445V51.638a0.445,0.445,0,0,1,.89,0v0.445A0.445,0.445,0,0,1,252.947,52.527Zm-1.334-1.779h-0.889a0.445,0.445,0,1,1,0-.889h0.889A0.445,0.445,0,0,1,251.613,50.748Zm-0.889,0a0.442,0.442,0,0,1-.314-0.13l-1.78-1.78a0.445,0.445,0,0,1,.629-0.629l1.78,1.78a0.445,0.445,0,0,1-.315.759h0Zm-4,1.779a0.445,0.445,0,0,1-.445-0.445V48.968a0.445,0.445,0,0,1,.89,0v3.114A0.445,0.445,0,0,1,246.721,52.527Zm1.334-2.669a0.445,0.445,0,0,1,0-.889,0.445,0.445,0,0,0,.445-0.445,0.445,0.445,0,1,1,.889,0A1.335,1.335,0,0,1,248.055,49.858Zm0,0h-1.334a0.445,0.445,0,1,1,0-.889h1.334A0.445,0.445,0,1,1,248.055,49.858Zm1.557,0.667a0.445,0.445,0,0,1-.315-0.759l0.445-.445a0.445,0.445,0,1,1,.629.629l-0.445.445a0.441,0.441,0,0,1-.314.13h0Z" transform="translate(-243.625 -36.063)"/>
</svg>
