<?xml version="1.0" encoding="utf-8"?>
<!-- Generator: Adobe Illustrator 24.2.0, SVG Export Plug-In . SVG Version: 6.00 Build 0)  -->
<svg version="1.1" id="Layer_1" xmlns="http://www.w3.org/2000/svg" xmlns:xlink="http://www.w3.org/1999/xlink" x="0px" y="0px"
	 viewBox="0 0 841.89 595.28" style="enable-background:new 0 0 841.89 595.28;" xml:space="preserve">
<style type="text/css">
	.st0{fill:#23663F;}
	.st1{fill:#114426;}
	.st2{fill:#FFFFFF;}
	.st3{clip-path:url(#SVGID_2_);fill:#C8C6CC;}
	.st4{fill:#8B8992;}
	.st5{clip-path:url(#SVGID_4_);}
	.st6{fill:#C8C6CC;}
</style>
<ellipse transform="matrix(0.7071 -0.7071 0.7071 0.7071 -87.1712 384.8291)" class="st0" cx="420.94" cy="297.64" rx="297.64" ry="297.64"/>
<path class="st1" d="M718.35,309.04L441.23,181.26c-30.01,8.1-10.54,42-6.69,0c1.61-17.55-3.5,18.36-3.5,82.97
	c0,34.06-112.51-22.6-89.28-1.23l40.61,40.73l-88.29,185.2l181.75,101.28l0,0C610.37,565.14,713.06,449.56,718.35,309.04z"/>
<g>
	<g>
		<path class="st2" d="M320.77,308.41h93.64v20.07h-93.64V308.41z"/>
	</g>
	<path class="st2" d="M441.23,181.26h-6.69v-6.69c0-14.78-11.97-26.75-26.75-26.75h-6.69v-20.07h-13.38V94.31h-40.13v33.44h-13.38
		v20.07h-6.69c-14.78,0-26.75,11.97-26.75,26.75v6.69h-6.69l-13.38,26.75v260.86v6.69c0,7.43,5.95,13.38,13.38,13.38h147.15
		c7.42,0,13.38-5.95,13.38-13.38v-6.69V208.02L441.23,181.26z M414.41,301.73v6.69v20.07h-93.64v-20.07v-40.2h20.07
		c7.36,0,13.38-5.95,13.38-13.38l16.72,16.79l10.03,10.03h13.38C405.45,281.66,414.41,290.62,414.41,301.73z"/>
	<g>
		<path class="st2" d="M394.34,281.66c11.1,0,20.07,8.96,20.07,20.07v6.69h-93.64v-40.2h20.07c7.36,0,13.38-5.95,13.38-13.38
			l16.72,16.79l10.03,10.03H394.34z"/>
	</g>
</g>
<g>
	<defs>
		<rect id="SVGID_1_" x="367.04" y="58.43" width="114.79" height="460"/>
	</defs>
	<clipPath id="SVGID_2_">
		<use xlink:href="#SVGID_1_"  style="overflow:visible;"/>
	</clipPath>
	<path class="st3" d="M440.61,180.86h-6.69v-6.69c0-14.78-11.97-26.75-26.75-26.75h-6.69v-20.07h-13.38V93.91h-40.13v33.44H333.6
		v20.07h-6.69c-14.78,0-26.75,11.97-26.75,26.75v6.69h-6.69l-13.38,26.75v260.86v6.69c0,7.43,5.95,13.38,13.38,13.38h147.15
		c7.42,0,13.38-5.95,13.38-13.38v-6.69V207.62L440.61,180.86z"/>
</g>
<g>
	<g>
		<g>
			<path class="st4" d="M414.46,368.54h-93.59c-3.7,0-6.69-2.99-6.69-6.69c0-3.7,2.99-6.69,6.69-6.69h93.59
				c3.7,0,6.69,2.99,6.69,6.69C421.15,365.55,418.16,368.54,414.46,368.54z"/>
		</g>
		<g>
			<path class="st4" d="M414.46,388.62h-93.59c-3.7,0-6.69-2.99-6.69-6.69c0-3.7,2.99-6.69,6.69-6.69h93.59
				c3.7,0,6.69,2.99,6.69,6.69C421.15,385.64,418.16,388.62,414.46,388.62z"/>
		</g>
		<g>
			<path class="st4" d="M381.01,408.71h-26.7c-3.7,0-6.69-2.99-6.69-6.69c0-3.7,2.99-6.69,6.69-6.69h26.7c3.7,0,6.69,2.99,6.69,6.69
				C387.7,405.72,384.71,408.71,381.01,408.71z"/>
		</g>
	</g>
	<g>
		<g>
			<g>
				<path class="st4" d="M414.47,335.15h-93.64c-3.7,0-6.69-2.99-6.69-6.69V308.4c0-3.7,2.99-6.69,6.69-6.69h93.64
					c3.7,0,6.69,2.99,6.69,6.69v20.07C421.16,332.16,418.17,335.15,414.47,335.15z M327.52,321.77h80.26v-6.69h-80.26V321.77z"/>
			</g>
			<g>
				<path class="st4" d="M414.47,308.4c-3.7,0-6.69-2.99-6.69-6.69c0-7.38-6-13.38-13.38-13.38c-3.7,0-6.69-2.99-6.69-6.69
					c0-3.7,2.99-6.69,6.69-6.69c14.75,0,26.75,12,26.75,26.76C421.16,305.4,418.17,308.4,414.47,308.4z"/>
			</g>
			<g>
				<path class="st4" d="M414.47,315.08c-3.7,0-6.69-2.99-6.69-6.69v-6.69c0-3.7,2.99-6.69,6.69-6.69c3.7,0,6.69,2.99,6.69,6.69
					v6.69C421.16,312.09,418.17,315.08,414.47,315.08z"/>
			</g>
			<g>
				<path class="st4" d="M394.4,288.33h-13.36c-3.7,0-6.69-2.99-6.69-6.69c0-3.7,2.99-6.69,6.69-6.69h13.36
					c3.7,0,6.69,2.99,6.69,6.69C401.09,285.34,398.1,288.33,394.4,288.33z"/>
			</g>
			<g>
				<path class="st4" d="M381.04,288.33c-1.71,0-3.42-0.66-4.73-1.96l-26.76-26.77c-2.62-2.62-2.62-6.84,0-9.46
					c2.62-2.61,6.84-2.61,9.46,0l26.76,26.77c2.61,2.62,2.61,6.84,0,9.46C384.46,287.67,382.75,288.33,381.04,288.33L381.04,288.33z
					"/>
			</g>
			<g>
				<path class="st4" d="M320.83,315.08c-3.7,0-6.69-2.99-6.69-6.69v-46.84c0-3.7,2.99-6.69,6.69-6.69c3.7,0,6.69,2.99,6.69,6.69
					v46.84C327.52,312.09,324.53,315.08,320.83,315.08z"/>
			</g>
			<g>
				<path class="st4" d="M340.9,274.94c-3.7,0-6.69-2.99-6.69-6.69s2.99-6.69,6.69-6.69c3.69,0,6.69-3,6.69-6.69
					c0-3.7,2.99-6.69,6.69-6.69c3.7,0,6.69,2.99,6.69,6.69C360.97,265.93,351.97,274.94,340.9,274.94z"/>
			</g>
			<g>
				<path class="st4" d="M340.9,274.94h-20.07c-3.7,0-6.69-2.99-6.69-6.69s2.99-6.69,6.69-6.69h20.07c3.7,0,6.69,2.99,6.69,6.69
					S344.6,274.94,340.9,274.94z"/>
			</g>
		</g>
		<g>
			<path class="st4" d="M364.31,284.98c-1.71,0-3.42-0.66-4.73-1.96c-2.62-2.61-2.62-6.84,0-9.46l6.68-6.69
				c2.62-2.62,6.84-2.62,9.46,0c2.62,2.61,2.62,6.84,0,9.46l-6.68,6.69C367.74,284.32,366.02,284.98,364.31,284.98L364.31,284.98z"
				/>
		</g>
	</g>
</g>
<g>
	<defs>
		<rect id="SVGID_3_" x="162.92" y="19" width="205.19" height="553.03"/>
	</defs>
	<clipPath id="SVGID_4_">
		<use xlink:href="#SVGID_3_"  style="overflow:visible;"/>
	</clipPath>
	<g class="st5">
		<g>
			<g>
				<path class="st6" d="M441.68,101.31c-3.16,0-5.97-2.24-6.56-5.45c-0.69-3.63,1.71-7.12,5.34-7.81l107.02-20.07
					c3.67-0.69,7.13,1.71,7.8,5.34c0.69,3.63-1.71,7.12-5.34,7.81l-107.02,20.07C442.5,101.27,442.09,101.31,441.68,101.31z"/>
			</g>
			<g>
				<path class="st6" d="M548.71,161.51c-0.41,0-0.82-0.04-1.24-0.12l-107.02-20.07c-3.63-0.68-6.02-4.17-5.34-7.81
					c0.68-3.63,4.17-6.01,7.81-5.34l107.02,20.07c3.63,0.68,6.02,4.17,5.34,7.81C554.68,159.27,551.87,161.51,548.71,161.51z"/>
			</g>
			<g>
				<path class="st6" d="M501.89,121.37h-60.2c-3.7,0-6.69-2.99-6.69-6.69c0-3.7,2.99-6.69,6.69-6.69h60.2
					c3.7,0,6.69,2.99,6.69,6.69C508.58,118.38,505.59,121.37,501.89,121.37z"/>
			</g>
			<g>
				<path class="st6" d="M548.71,121.37h-26.75c-3.7,0-6.69-2.99-6.69-6.69c0-3.7,2.99-6.69,6.69-6.69h26.75
					c3.7,0,6.69,2.99,6.69,6.69C555.4,118.38,552.4,121.37,548.71,121.37z"/>
			</g>
		</g>
		<g>
			<g>
				<path class="st6" d="M414.83,368.85h-93.59c-3.7,0-6.69-2.99-6.69-6.69c0-3.7,2.99-6.69,6.69-6.69h93.59
					c3.7,0,6.69,2.99,6.69,6.69C421.52,365.86,418.53,368.85,414.83,368.85z"/>
			</g>
			<g>
				<path class="st6" d="M414.83,388.94h-93.59c-3.7,0-6.69-2.99-6.69-6.69c0-3.7,2.99-6.69,6.69-6.69h93.59
					c3.7,0,6.69,2.99,6.69,6.69C421.52,385.95,418.53,388.94,414.83,388.94z"/>
			</g>
			<g>
				<path class="st6" d="M381.39,409.02h-26.7c-3.7,0-6.69-2.99-6.69-6.69c0-3.7,2.99-6.69,6.69-6.69h26.7
					c3.7,0,6.69,2.99,6.69,6.69C388.08,406.03,385.09,409.02,381.39,409.02z"/>
			</g>
		</g>
		<g>
			<g>
				<g>
					<path class="st6" d="M414.85,335.46H321.2c-3.7,0-6.69-2.99-6.69-6.69v-20.06c0-3.7,2.99-6.69,6.69-6.69h93.64
						c3.7,0,6.69,2.99,6.69,6.69v20.06C421.53,332.47,418.54,335.46,414.85,335.46z M327.89,322.08h80.26v-6.69h-80.26V322.08z"/>
				</g>
				<g>
					<path class="st6" d="M414.85,308.71c-3.7,0-6.69-2.99-6.69-6.69c0-7.38-6-13.38-13.38-13.38c-3.7,0-6.69-2.99-6.69-6.69
						c0-3.7,2.99-6.69,6.69-6.69c14.76,0,26.76,12,26.76,26.76C421.53,305.72,418.54,308.71,414.85,308.71z"/>
				</g>
				<g>
					<path class="st6" d="M414.85,315.39c-3.7,0-6.69-2.99-6.69-6.69v-6.69c0-3.7,2.99-6.69,6.69-6.69s6.69,2.99,6.69,6.69v6.69
						C421.53,312.41,418.54,315.39,414.85,315.39z"/>
				</g>
				<g>
					<path class="st6" d="M394.78,288.64h-13.36c-3.7,0-6.69-2.99-6.69-6.69c0-3.7,2.99-6.69,6.69-6.69h13.36
						c3.7,0,6.69,2.99,6.69,6.69C401.47,285.65,398.48,288.64,394.78,288.64z"/>
				</g>
				<g>
					<path class="st6" d="M381.42,288.64c-1.71,0-3.42-0.66-4.73-1.96l-26.76-26.77c-2.62-2.62-2.62-6.84,0-9.46
						c2.62-2.61,6.84-2.61,9.46,0l26.76,26.77c2.62,2.62,2.62,6.84,0,9.46C384.84,287.98,383.13,288.64,381.42,288.64L381.42,288.64
						z"/>
				</g>
				<g>
					<path class="st6" d="M321.2,315.39c-3.7,0-6.69-2.99-6.69-6.69v-46.84c0-3.7,2.99-6.69,6.69-6.69c3.7,0,6.69,2.99,6.69,6.69
						v46.84C327.89,312.41,324.9,315.39,321.2,315.39z"/>
				</g>
				<g>
					<path class="st6" d="M341.28,275.25c-3.7,0-6.69-2.99-6.69-6.69c0-3.7,2.99-6.69,6.69-6.69c3.69,0,6.69-3,6.69-6.69
						c0-3.7,2.99-6.69,6.69-6.69c3.7,0,6.69,2.99,6.69,6.69C361.34,266.25,352.35,275.25,341.28,275.25z"/>
				</g>
				<g>
					<path class="st6" d="M341.28,275.25H321.2c-3.7,0-6.69-2.99-6.69-6.69c0-3.7,2.99-6.69,6.69-6.69h20.07
						c3.7,0,6.69,2.99,6.69,6.69C347.96,272.26,344.98,275.25,341.28,275.25z"/>
				</g>
			</g>
			<g>
				<path class="st6" d="M364.69,285.29c-1.71,0-3.42-0.66-4.73-1.96c-2.62-2.61-2.62-6.84,0-9.46l6.68-6.69
					c2.62-2.62,6.84-2.62,9.46,0c2.62,2.61,2.62,6.84,0,9.46l-6.68,6.69C368.11,284.63,366.4,285.29,364.69,285.29L364.69,285.29z"
					/>
			</g>
		</g>
	</g>
</g>
<g>
	<path class="st6" d="M440.73,98.73c-3.16,0-5.97-2.24-6.56-5.45c-0.69-3.63,1.71-7.12,5.34-7.81L546.53,65.4
		c3.66-0.69,7.13,1.71,7.8,5.34c0.69,3.63-1.71,7.12-5.34,7.81L441.98,98.61C441.56,98.69,441.14,98.73,440.73,98.73z"/>
</g>
<g>
	<path class="st6" d="M547.76,158.92c-0.41,0-0.82-0.04-1.24-0.12L439.5,138.74c-3.63-0.68-6.02-4.17-5.34-7.81
		c0.68-3.63,4.17-6.01,7.81-5.34l107.02,20.07c3.63,0.68,6.02,4.17,5.34,7.81C553.73,156.68,550.92,158.92,547.76,158.92z"/>
</g>
<g>
	<path class="st6" d="M500.94,118.79h-60.2c-3.7,0-6.69-2.99-6.69-6.69c0-3.7,2.99-6.69,6.69-6.69h60.2c3.7,0,6.69,2.99,6.69,6.69
		C507.63,115.8,504.64,118.79,500.94,118.79z"/>
</g>
<g>
	<path class="st6" d="M547.76,118.79H521c-3.7,0-6.69-2.99-6.69-6.69c0-3.7,2.99-6.69,6.69-6.69h26.75c3.7,0,6.69,2.99,6.69,6.69
		C554.45,115.8,551.46,118.79,547.76,118.79z"/>
</g>
</svg>
